<?xml version="1.0" encoding="UTF-8" standalone="no"?>
<!DOCTYPE svg PUBLIC "-//W3C//DTD SVG 1.1//EN"
 "http://www.w3.org/Graphics/SVG/1.1/DTD/svg11.dtd">
<!-- Generated by graphviz version 2.38.0 (20140413.2041)
 -->
<!-- Title: Arquitectura Pages: 1 -->
<svg width="438pt" height="193pt"
 viewBox="0.00 0.00 437.50 193.00" xmlns="http://www.w3.org/2000/svg" xmlns:xlink="http://www.w3.org/1999/xlink">
<g id="graph0" class="graph" transform="scale(1 1) rotate(0) translate(4 189)">
<title>Arquitectura</title>
<polygon fill="white" stroke="none" points="-4,4 -4,-189 433.5,-189 433.5,4 -4,4"/>
<!-- D -->
<g id="node1" class="node"><title>D</title>
<polygon fill="none" stroke="blue" points="160,-0.5 160,-46.5 301,-46.5 301,-0.5 160,-0.5"/>
<text text-anchor="middle" x="230.5" y="-31.3" font-family="Liberation Sans Narrow" font-size="14.00">Directorio</text>
<polyline fill="none" stroke="blue" points="160,-23.5 301,-23.5 "/>
<text text-anchor="middle" x="183.5" y="-8.3" font-family="Liberation Sans Narrow" font-size="14.00">LDAP</text>
<polyline fill="none" stroke="blue" points="207,-0.5 207,-23.5 "/>
<text text-anchor="middle" x="254" y="-8.3" font-family="Liberation Sans Narrow" font-size="14.00">Base de Datos</text>
</g>
<!-- I -->
<g id="node2" class="node"><title>I</title>
<polygon fill="none" stroke="blue" points="154.5,-69.5 154.5,-115.5 306.5,-115.5 306.5,-69.5 154.5,-69.5"/>
<text text-anchor="middle" x="230.5" y="-100.3" font-family="Liberation Sans Narrow" font-size="14.00">Capa de interoperabilidad</text>
<polyline fill="none" stroke="blue" points="154.5,-92.5 306.5,-92.5 "/>
<text text-anchor="middle" x="230.5" y="-77.3" font-family="Liberation Sans Narrow" font-size="14.00">OpenID</text>
</g>
<!-- D&#45;&gt;I -->
<g id="edge1" class="edge"><title>D&#45;&gt;I</title>
<path fill="none" stroke="black" d="M230.5,-46.81C230.5,-50.7238 230.5,-54.8678 230.5,-58.9917"/>
<polygon fill="black" stroke="black" points="227,-59.0589 230.5,-69.059 234,-59.059 227,-59.0589"/>
</g>
<!-- Correo -->
<g id="node3" class="node"><title>Correo</title>
<polygon fill="none" stroke="blue" points="0,-138.5 0,-184.5 113,-184.5 113,-138.5 0,-138.5"/>
<text text-anchor="middle" x="56.5" y="-169.3" font-family="Liberation Sans Narrow" font-size="14.00">Correo Electrónico</text>
<polyline fill="none" stroke="blue" points="0,-161.5 113,-161.5 "/>
<text text-anchor="middle" x="56.5" y="-146.3" font-family="Liberation Sans Narrow" font-size="14.00">SMTP</text>
</g>
<!-- I&#45;&gt;Correo -->
<g id="edge2" class="edge"><title>I&#45;&gt;Correo</title>
<path fill="none" stroke="black" d="M173.044,-115.624C156.908,-121.837 139.233,-128.643 122.635,-135.034"/>
<polygon fill="black" stroke="black" points="121.081,-131.882 113.007,-138.742 123.597,-138.414 121.081,-131.882"/>
</g>
<!-- Chat -->
<g id="node4" class="node"><title>Chat</title>
<polygon fill="none" stroke="blue" points="131.5,-138.5 131.5,-184.5 185.5,-184.5 185.5,-138.5 131.5,-138.5"/>
<text text-anchor="middle" x="158.5" y="-169.3" font-family="Liberation Sans Narrow" font-size="14.00">Chat</text>
<polyline fill="none" stroke="blue" points="131.5,-161.5 185.5,-161.5 "/>
<text text-anchor="middle" x="158.5" y="-146.3" font-family="Liberation Sans Narrow" font-size="14.00">XMPP</text>
</g>
<!-- I&#45;&gt;Chat -->
<g id="edge3" class="edge"><title>I&#45;&gt;Chat</title>
<path fill="none" stroke="black" d="M206.525,-115.81C201.238,-120.73 195.559,-126.014 190.024,-131.165"/>
<polygon fill="black" stroke="black" points="187.552,-128.684 182.616,-138.059 192.321,-133.809 187.552,-128.684"/>
</g>
<!-- Vídeo -->
<g id="node5" class="node"><title>Vídeo</title>
<polygon fill="none" stroke="blue" points="203.5,-138.5 203.5,-184.5 257.5,-184.5 257.5,-138.5 203.5,-138.5"/>
<text text-anchor="middle" x="230.5" y="-169.3" font-family="Liberation Sans Narrow" font-size="14.00">Vídeo</text>
<polyline fill="none" stroke="blue" points="203.5,-161.5 257.5,-161.5 "/>
<text text-anchor="middle" x="230.5" y="-146.3" font-family="Liberation Sans Narrow" font-size="14.00">SIP</text>
</g>
<!-- I&#45;&gt;Vídeo -->
<g id="edge4" class="edge"><title>I&#45;&gt;Vídeo</title>
<path fill="none" stroke="black" d="M230.5,-115.81C230.5,-119.724 230.5,-123.868 230.5,-127.992"/>
<polygon fill="black" stroke="black" points="227,-128.059 230.5,-138.059 234,-128.059 227,-128.059"/>
</g>
<!-- Telefonía -->
<g id="node6" class="node"><title>Telefonía</title>
<polygon fill="none" stroke="blue" points="276,-138.5 276,-184.5 341,-184.5 341,-138.5 276,-138.5"/>
<text text-anchor="middle" x="308.5" y="-169.3" font-family="Liberation Sans Narrow" font-size="14.00">Telefonía</text>
<polyline fill="none" stroke="blue" points="276,-161.5 341,-161.5 "/>
<text text-anchor="middle" x="308.5" y="-146.3" font-family="Liberation Sans Narrow" font-size="14.00">SIP</text>
</g>
<!-- I&#45;&gt;Telefonía -->
<g id="edge5" class="edge"><title>I&#45;&gt;Telefonía</title>
<path fill="none" stroke="black" d="M256.473,-115.81C262.393,-120.896 268.766,-126.37 274.953,-131.684"/>
<polygon fill="black" stroke="black" points="272.774,-134.426 282.641,-138.287 277.335,-129.116 272.774,-134.426"/>
</g>
<!-- Contactos -->
<g id="node7" class="node"><title>Contactos</title>
<polygon fill="none" stroke="blue" points="359.5,-138.5 359.5,-184.5 429.5,-184.5 429.5,-138.5 359.5,-138.5"/>
<text text-anchor="middle" x="394.5" y="-169.3" font-family="Liberation Sans Narrow" font-size="14.00">Contactos</text>
<polyline fill="none" stroke="blue" points="359.5,-161.5 429.5,-161.5 "/>
<text text-anchor="middle" x="394.5" y="-146.3" font-family="Liberation Sans Narrow" font-size="14.00">SyncML</text>
</g>
<!-- I&#45;&gt;Contactos -->
<g id="edge6" class="edge"><title>I&#45;&gt;Contactos</title>
<path fill="none" stroke="black" d="M294.269,-115.565C310.379,-121.513 327.7,-128.227 349.742,-137.825"/>
<polygon fill="black" stroke="black" points="348.569,-141.132 359.131,-141.962 351.391,-134.727 348.569,-141.132"/>
</g>
</g>
</svg>
