<?xml version="1.0" encoding="UTF-8" standalone="no"?>
<!DOCTYPE svg PUBLIC "-//W3C//DTD SVG 1.0//EN" "http://www.w3.org/TR/2001/PR-SVG-20010719/DTD/svg10.dtd">
<svg width="70cm" height="22cm" viewBox="32 9 1388 431" xmlns="http://www.w3.org/2000/svg" xmlns:xlink="http://www.w3.org/1999/xlink">
  <g>
    <path style="fill: #ffffff" d="M 632.399 90.7431 C 609.47,89.918 565,107.244 571.254,144.37 C 577.507,181.497 607.385,189.747 619.892,179.022 C 632.399,168.296 600.437,230.999 661.582,247.499 C 722.727,264 753.995,237.599 744.962,218.623 C 735.929,199.647 798.465,263.175 827.648,226.874 C 856.831,190.572 797.77,155.921 810.277,160.871 C 822.784,165.821 861,159.221 848.493,97.3434 C 835.986,35.4657 723.422,83.3178 735.929,74.2424 C 748.436,65.167 717.169,19.79 678.258,28.8654 C 639.348,37.9408 636.588,54.4094 632.419,90.7109 L 632.399,90.7431z"/>
    <path style="fill: none; fill-opacity:0; stroke-width: 2; stroke: #000000" d="M 632.399 90.7431 C 609.47,89.918 565,107.244 571.254,144.37 C 577.507,181.497 607.385,189.747 619.892,179.022 C 632.399,168.296 600.437,230.999 661.582,247.499 C 722.727,264 753.995,237.599 744.962,218.623 C 735.929,199.647 798.465,263.175 827.648,226.874 C 856.831,190.572 797.77,155.921 810.277,160.871 C 822.784,165.821 861,159.221 848.493,97.3434 C 835.986,35.4657 723.422,83.3178 735.929,74.2424 C 748.436,65.167 717.169,19.79 678.258,28.8654 C 639.348,37.9408 636.588,54.4094 632.419,90.7109 L 632.399,90.7431"/>
    <text font-size="12.8" style="fill: #000000;text-anchor:middle;font-family:sans-serif;font-style:normal;font-weight:normal" x="720.935" y="150.2">
      <tspan x="720.935" y="150.2">Internet</tspan>
    </text>
  </g>
  <g>
    <polygon style="fill: none; fill-opacity:0; stroke-width: 2; stroke: #000000" points="326.667,329 253.334,439 106.666,439 33.3328,329 106.666,219 253.334,219 "/>
    <text font-size="12.8" style="fill: #000000;text-anchor:middle;font-family:monospace;font-style:normal;font-weight:normal" x="180" y="327.5">
      <tspan x="180" y="327.5">quillacollo.gob.bo</tspan>
    </text>
  </g>
  <g>
    <path style="fill: #0096d4" d="M 169.87 303 L 124.144,229.974 L 83.116,303 L 169.87,303z"/>
    <path style="fill: none; fill-opacity:0; stroke-width: 0.04; stroke: #aae6ff" d="M 169.87 303 L 124.144,229.974 L 83.3676,302.539"/>
    <path style="fill: none; fill-opacity:0; stroke-width: 0.04; stroke: #aae6ff" d="M 83.3676 303 L 169.87,303"/>
    <path style="fill: #005a80" d="M 124.144 229.974 L 135.16,219 L 180.885,292.012 L 169.87,302.203 L 124.144,229.974z"/>
    <path style="fill: none; fill-opacity:0; stroke-width: 0.04; stroke: #aae6ff" d="M 124.144 229.974 L 135.16,219 L 180.885,292.012 L 169.87,302.203 L 124.144,229.974"/>
    <path style="fill: #ffffff" d="M 131.204 251.935 L 131.204,251.641 L 131.162,251.32 L 131.134,250.984 L 131.078,250.69 L 130.98,250.383 L 130.896,250.089 L 130.784,249.754 L 130.659,249.488 L 130.519,249.195 L 130.351,248.929 L 130.197,248.622 L 130.002,248.356 L 129.778,248.132 L 129.596,247.881 L 129.345,247.643 L 129.135,247.405 L 128.855,247.21 L 128.618,247.014 L 128.324,246.818 L 128.059,246.651 L 127.765,246.483 L 127.457,246.343 L 127.136,246.217 L 126.814,246.077 L 126.521,245.994 L 126.185,245.896 L 125.836,245.826 L 125.5,245.77 L 125.179,245.728 L 124.843,245.7 L 124.508,245.7 L 124.508,245.7 L 124.172,245.7 L 123.823,245.728 L 123.487,245.77 L 123.166,245.826 L 122.83,245.896 L 122.495,245.994 L 122.173,246.077 L 121.866,246.217 L 121.558,246.343 L 121.223,246.483 L 120.943,246.651 L 120.678,246.818 L 120.398,247.014 L 120.146,247.21 L 119.881,247.405 L 119.643,247.643 L 119.406,247.881 L 119.196,248.132 L 119.014,248.356 L 118.804,248.622 L 118.651,248.929 L 118.497,249.195 L 118.329,249.488 L 118.231,249.754 L 118.119,250.089 L 118.022,250.383 L 117.938,250.69 L 117.868,250.984 L 117.854,251.32 L 117.798,251.641 L 117.798,251.935 L 117.798,251.935 L 117.798,252.27 L 117.854,252.564 L 117.868,252.899 L 117.938,253.221 L 118.022,253.514 L 118.119,253.822 L 118.231,254.115 L 118.329,254.423 L 118.497,254.716 L 118.651,254.982 L 118.804,255.262 L 119.014,255.527 L 119.196,255.779 L 119.406,256.03 L 119.643,256.268 L 119.881,256.478 L 120.146,256.673 L 120.398,256.897 L 120.678,257.093 L 120.943,257.247 L 121.223,257.428 L 121.558,257.568 L 121.866,257.694 L 122.173,257.834 L 122.495,257.918 L 122.83,258.001 L 123.166,258.057 L 123.487,258.141 L 123.823,258.183 L 124.172,258.211 L 124.508,258.211 L 124.508,258.211 L 124.843,258.211 L 125.179,258.183 L 125.5,258.141 L 125.836,258.057 L 126.185,258.001 L 126.521,257.918 L 126.814,257.834 L 127.136,257.694 L 127.457,257.568 L 127.765,257.428 L 128.059,257.247 L 128.324,257.093 L 128.618,256.897 L 128.855,256.673 L 129.135,256.478 L 129.345,256.268 L 129.596,256.03 L 129.778,255.779 L 130.002,255.527 L 130.197,255.262 L 130.351,254.982 L 130.519,254.716 L 130.659,254.423 L 130.784,254.115 L 130.896,253.822 L 130.98,253.514 L 131.078,253.221 L 131.134,252.899 L 131.162,252.564 L 131.204,252.27 L 131.204,251.935z"/>
    <path style="fill: #ffffff" d="M 147.741 291.593 L 147.741,291.258 L 147.713,290.922 L 147.671,290.587 L 147.601,290.251 L 147.517,289.916 L 147.434,289.58 L 147.336,289.273 L 147.224,288.965 L 147.07,288.63 L 146.958,288.322 L 146.777,288.042 L 146.595,287.777 L 146.413,287.497 L 146.203,287.232 L 145.994,286.98 L 145.756,286.756 L 145.546,286.519 L 145.295,286.309 L 145.029,286.113 L 144.764,285.918 L 144.498,285.75 L 144.19,285.596 L 143.911,285.442 L 143.631,285.331 L 143.31,285.219 L 143.016,285.135 L 142.709,285.051 L 142.401,284.981 L 142.08,284.953 L 141.744,284.911 L 141.437,284.911 L 141.437,284.911 L 141.129,284.911 L 140.78,284.953 L 140.472,284.981 L 140.164,285.051 L 139.857,285.135 L 139.549,285.219 L 139.242,285.331 L 138.948,285.442 L 138.669,285.596 L 138.375,285.75 L 138.11,285.918 L 137.844,286.113 L 137.578,286.309 L 137.327,286.519 L 137.103,286.756 L 136.879,286.98 L 136.656,287.232 L 136.46,287.497 L 136.278,287.777 L 136.097,288.042 L 135.901,288.322 L 135.789,288.63 L 135.635,288.965 L 135.537,289.273 L 135.426,289.58 L 135.342,289.916 L 135.272,290.251 L 135.188,290.587 L 135.16,290.922 L 135.132,291.258 L 135.132,291.593 L 135.132,291.593 L 135.132,291.915 L 135.16,292.25 L 135.188,292.586 L 135.272,292.921 L 135.342,293.257 L 135.426,293.592 L 135.537,293.9 L 135.635,294.207 L 135.789,294.529 L 135.901,294.836 L 136.097,295.13 L 136.278,295.395 L 136.46,295.661 L 136.656,295.927 L 136.879,296.192 L 137.103,296.416 L 137.327,296.667 L 137.578,296.863 L 137.844,297.059 L 138.11,297.269 L 138.375,297.408 L 138.669,297.576 L 138.948,297.716 L 139.242,297.842 L 139.549,297.954 L 139.857,298.037 L 140.164,298.135 L 140.472,298.191 L 140.78,298.219 L 141.129,298.261 L 141.437,298.261 L 141.437,298.261 L 141.744,298.261 L 142.08,298.219 L 142.401,298.191 L 142.709,298.135 L 143.016,298.037 L 143.31,297.954 L 143.631,297.842 L 143.911,297.716 L 144.19,297.576 L 144.498,297.408 L 144.764,297.269 L 145.029,297.059 L 145.295,296.863 L 145.546,296.667 L 145.756,296.416 L 145.994,296.192 L 146.203,295.927 L 146.413,295.661 L 146.595,295.395 L 146.777,295.13 L 146.958,294.836 L 147.07,294.529 L 147.224,294.207 L 147.336,293.9 L 147.434,293.592 L 147.517,293.257 L 147.601,292.921 L 147.671,292.586 L 147.713,292.25 L 147.741,291.915 L 147.741,291.593z"/>
    <path style="fill: #ffffff" d="M 113.786 291.593 L 113.786,291.258 L 113.786,290.922 L 113.744,290.587 L 113.674,290.251 L 113.604,289.916 L 113.52,289.58 L 113.423,289.273 L 113.297,288.965 L 113.157,288.63 L 113.003,288.322 L 112.835,288.042 L 112.696,287.777 L 112.472,287.497 L 112.29,287.232 L 112.081,286.98 L 111.857,286.756 L 111.605,286.519 L 111.368,286.309 L 111.13,286.113 L 110.85,285.918 L 110.557,285.75 L 110.291,285.596 L 110.012,285.442 L 109.718,285.331 L 109.411,285.219 L 109.075,285.135 L 108.795,285.051 L 108.488,284.981 L 108.152,284.953 L 107.831,284.911 L 107.523,284.911 L 107.523,284.911 L 107.216,284.911 L 106.894,284.953 L 106.573,284.981 L 106.251,285.051 L 105.972,285.135 L 105.65,285.219 L 105.343,285.331 L 105.035,285.442 L 104.756,285.596 L 104.49,285.75 L 104.182,285.918 L 103.917,286.113 L 103.693,286.309 L 103.442,286.519 L 103.19,286.756 L 102.952,286.98 L 102.771,287.232 L 102.575,287.497 L 102.351,287.777 L 102.211,288.042 L 102.03,288.322 L 101.89,288.63 L 101.764,288.965 L 101.638,289.273 L 101.54,289.58 L 101.456,289.916 L 101.373,290.251 L 101.303,290.587 L 101.275,290.922 L 101.247,291.258 L 101.247,291.593 L 101.247,291.593 L 101.247,291.915 L 101.275,292.25 L 101.303,292.586 L 101.373,292.921 L 101.456,293.257 L 101.54,293.592 L 101.638,293.9 L 101.764,294.207 L 101.89,294.529 L 102.03,294.836 L 102.211,295.13 L 102.351,295.395 L 102.575,295.661 L 102.771,295.927 L 102.952,296.192 L 103.19,296.416 L 103.442,296.667 L 103.693,296.863 L 103.917,297.059 L 104.182,297.269 L 104.49,297.408 L 104.756,297.576 L 105.035,297.716 L 105.343,297.842 L 105.65,297.954 L 105.972,298.037 L 106.251,298.135 L 106.573,298.191 L 106.894,298.219 L 107.216,298.261 L 107.523,298.261 L 107.523,298.261 L 107.831,298.261 L 108.152,298.219 L 108.488,298.191 L 108.795,298.135 L 109.075,298.037 L 109.411,297.954 L 109.718,297.842 L 110.012,297.716 L 110.291,297.576 L 110.557,297.408 L 110.85,297.269 L 111.13,297.059 L 111.368,296.863 L 111.605,296.667 L 111.857,296.416 L 112.081,296.192 L 112.29,295.927 L 112.472,295.661 L 112.696,295.395 L 112.835,295.13 L 113.003,294.836 L 113.157,294.529 L 113.297,294.207 L 113.423,293.9 L 113.52,293.592 L 113.604,293.257 L 113.674,292.921 L 113.744,292.586 L 113.786,292.25 L 113.786,291.915 L 113.786,291.593z"/>
    <path style="fill: #ffffff" d="M 131.204 274.692 L 131.204,274.385 L 131.162,274.035 L 131.134,273.728 L 131.078,273.434 L 130.98,273.113 L 130.896,272.833 L 130.784,272.512 L 130.659,272.232 L 130.519,271.939 L 130.351,271.631 L 130.197,271.379 L 130.002,271.114 L 129.778,270.848 L 129.596,270.583 L 129.345,270.373 L 129.135,270.149 L 128.855,269.94 L 128.618,269.73 L 128.324,269.562 L 128.059,269.38 L 127.765,269.199 L 127.457,269.059 L 127.136,268.933 L 126.814,268.807 L 126.521,268.709 L 126.185,268.626 L 125.836,268.542 L 125.5,268.486 L 125.179,268.444 L 124.843,268.416 L 124.508,268.416 L 124.508,268.416 L 124.172,268.416 L 123.823,268.444 L 123.487,268.486 L 123.166,268.542 L 122.83,268.626 L 122.495,268.709 L 122.173,268.807 L 121.866,268.933 L 121.558,269.059 L 121.223,269.199 L 120.943,269.38 L 120.678,269.562 L 120.398,269.73 L 120.146,269.94 L 119.881,270.149 L 119.643,270.373 L 119.406,270.583 L 119.196,270.848 L 119.014,271.114 L 118.804,271.379 L 118.651,271.631 L 118.497,271.939 L 118.329,272.232 L 118.231,272.512 L 118.119,272.833 L 118.022,273.113 L 117.938,273.434 L 117.868,273.728 L 117.854,274.035 L 117.798,274.385 L 117.798,274.692 L 117.798,274.692 L 117.798,275 L 117.854,275.335 L 117.868,275.657 L 117.938,275.965 L 118.022,276.272 L 118.119,276.566 L 118.231,276.873 L 118.329,277.167 L 118.497,277.446 L 118.651,277.74 L 118.804,278.005 L 119.014,278.285 L 119.196,278.537 L 119.406,278.788 L 119.643,279.012 L 119.881,279.236 L 120.146,279.459 L 120.398,279.655 L 120.678,279.837 L 120.943,280.018 L 121.223,280.2 L 121.558,280.326 L 121.866,280.466 L 122.173,280.578 L 122.495,280.689 L 122.83,280.773 L 123.166,280.843 L 123.487,280.899 L 123.823,280.941 L 124.172,280.969 L 124.508,280.969 L 124.508,280.969 L 124.843,280.969 L 125.179,280.941 L 125.5,280.899 L 125.836,280.843 L 126.185,280.773 L 126.521,280.689 L 126.814,280.578 L 127.136,280.466 L 127.457,280.326 L 127.765,280.2 L 128.059,280.018 L 128.324,279.837 L 128.618,279.655 L 128.855,279.459 L 129.135,279.236 L 129.345,279.012 L 129.596,278.788 L 129.778,278.537 L 130.002,278.285 L 130.197,278.005 L 130.351,277.74 L 130.519,277.446 L 130.659,277.167 L 130.784,276.873 L 130.896,276.566 L 130.98,276.272 L 131.078,275.965 L 131.134,275.657 L 131.162,275.335 L 131.204,275 L 131.204,274.692z"/>
    <path style="fill: #ffffff" d="M 122.565 251.166 L 122.565,271.589 L 125.71,271.589 L 125.71,251.166 L 122.565,251.166z"/>
    <path style="fill: #ffffff" d="M 124.144 277.083 L 138.305,292.012 L 140.654,289.65 L 126.493,274.734 L 124.144,277.083z"/>
    <path style="fill: #ffffff" d="M 109.131 292.012 L 123.348,277.083 L 120.957,274.734 L 106.783,289.65 L 109.131,292.012z"/>
  </g>
  <text font-size="12.8" style="fill: #000000;text-anchor:start;font-family:sans-serif;font-style:normal;font-weight:normal" x="180" y="329">
    <tspan x="180" y="329"></tspan>
  </text>
  <text font-size="12.8" style="fill: #000000;text-anchor:start;font-family:sans-serif;font-style:normal;font-weight:normal" x="131.12" y="408.546">
    <tspan x="131.12" y="408.546"></tspan>
  </text>
  <text font-size="12.8" style="fill: #000000;text-anchor:start;font-family:sans-serif;font-style:normal;font-weight:normal" x="109" y="350">
    <tspan x="109" y="350"></tspan>
  </text>
  <text font-size="12.8" style="fill: #000000;text-anchor:start;font-family:sans-serif;font-style:normal;font-weight:normal" x="90.116" y="316">
    <tspan x="90.116" y="316">XMPP</tspan>
  </text>
  <g>
    <path style="fill: none; fill-opacity:0; stroke-width: 2; stroke: #000000" d="M 326.667 329 C 438.999,323 439,149.999 560.828,139.147"/>
    <polygon style="fill: #000000" points="568.299,138.482 558.782,144.349 560.828,139.147 557.894,134.389 "/>
    <polygon style="fill: none; fill-opacity:0; stroke-width: 2; stroke: #000000" points="568.299,138.482 558.782,144.349 560.828,139.147 557.894,134.389 "/>
  </g>
  <text font-size="12.8" style="fill: #000000;text-anchor:start;font-family:sans-serif;font-style:normal;font-weight:normal" x="251" y="89">
    <tspan x="251" y="89"></tspan>
  </text>
  <text font-size="12.8" style="fill: #000000;text-anchor:start;font-family:sans-serif;font-style:normal;font-weight:normal" x="106.666" y="219">
    <tspan x="106.666" y="219">Institución Publica</tspan>
  </text>
  <g>
    <rect style="fill: #ffffff" x="211" y="246" width="34" height="30"/>
    <ellipse style="fill: #ffffff" cx="228" cy="276" rx="17" ry="5"/>
    <ellipse style="fill: #ffffff" cx="228" cy="246" rx="17" ry="5"/>
    <ellipse style="fill: none; fill-opacity:0; stroke-width: 2; stroke: #000000" cx="228" cy="246" rx="17" ry="5"/>
    <path style="fill: none; fill-opacity:0; stroke-width: 2; stroke: #000000" d="M 245 246 L 245,276 C 245,278.761 237.389,281 228,281 C 218.611,281 211,278.761 211,276 L 211,246"/>
    <text font-size="12.8" style="fill: #000000;text-anchor:middle;font-family:sans-serif;font-style:normal;font-weight:normal" x="228" y="293">
      <tspan x="228" y="293">LDAP</tspan>
    </text>
  </g>
  <g>
    <polygon style="fill: none; fill-opacity:0; stroke-width: 2; stroke: #000000" points="1418.49,188 1343.24,300.865 1192.76,300.865 1117.51,188 1192.76,75.1351 1343.24,75.1351 "/>
    <text font-size="12.8" style="fill: #000000;text-anchor:middle;font-family:monospace;font-style:normal;font-weight:normal" x="1268" y="178.5">
      <tspan x="1268" y="178.5">Central Gubernamental</tspan>
      <tspan x="1268" y="194.5">publico.gob.bo</tspan>
    </text>
  </g>
  <g>
    <path style="fill: #1c97cd" d="M 175.348 377.882 L 120.902,377.882 L 120.902,343.679 L 175.348,343.679 L 175.348,377.882z"/>
    <path style="fill: none; fill-opacity:0; stroke-width: 0.02; stroke: #add6e7" d="M 175.348 377.882 L 120.902,377.882 L 120.902,343.679 L 175.348,343.679 L 175.348,377.882"/>
    <path style="fill: #076086" d="M 175.356 378 L 181.098,372.187 L 181.098,338 L 175.356,343.789 L 175.356,378z"/>
    <path style="fill: none; fill-opacity:0; stroke-width: 0.02; stroke: #add6e7" d="M 175.356 378 L 181.098,372.187 L 181.098,338 L 175.356,343.789 L 175.356,378"/>
    <path style="fill: #3cafe4" d="M 175.356 343.789 L 181.098,338 L 126.668,338 L 120.91,343.789 L 175.356,343.789z"/>
    <path style="fill: none; fill-opacity:0; stroke-width: 0.02; stroke: #add6e7" d="M 175.356 343.789 L 181.098,338 L 126.668,338 L 120.91,343.789 L 175.356,343.789"/>
    <path style="fill: #1f1a17" d="M 169.08 373.585 L 169.08,348.809 L 148.42,361.205 L 169.08,373.585z"/>
    <path style="fill: #1f1a17" d="M 127.673 348.809 L 127.673,373.585 L 148.687,361.205 L 127.673,348.809z"/>
    <path style="fill: #ffffff" d="M 168.828 373.153 L 168.828,348.393 L 148.168,360.773 L 168.828,373.153z"/>
    <path style="fill: #ffffff" d="M 127.414 348.393 L 127.414,373.153 L 148.42,360.773 L 127.414,348.393z"/>
  </g>
  <g>
    <path style="fill: #1c97cd" d="M 1268.35 263.882 L 1213.9,263.882 L 1213.9,229.679 L 1268.35,229.679 L 1268.35,263.882z"/>
    <path style="fill: none; fill-opacity:0; stroke-width: 0.02; stroke: #add6e7" d="M 1268.35 263.882 L 1213.9,263.882 L 1213.9,229.679 L 1268.35,229.679 L 1268.35,263.882"/>
    <path style="fill: #076086" d="M 1268.36 264 L 1274.1,258.187 L 1274.1,224 L 1268.36,229.789 L 1268.36,264z"/>
    <path style="fill: none; fill-opacity:0; stroke-width: 0.02; stroke: #add6e7" d="M 1268.36 264 L 1274.1,258.187 L 1274.1,224 L 1268.36,229.789 L 1268.36,264"/>
    <path style="fill: #3cafe4" d="M 1268.36 229.789 L 1274.1,224 L 1219.67,224 L 1213.91,229.789 L 1268.36,229.789z"/>
    <path style="fill: none; fill-opacity:0; stroke-width: 0.02; stroke: #add6e7" d="M 1268.36 229.789 L 1274.1,224 L 1219.67,224 L 1213.91,229.789 L 1268.36,229.789"/>
    <path style="fill: #1f1a17" d="M 1262.08 259.585 L 1262.08,234.809 L 1241.42,247.205 L 1262.08,259.585z"/>
    <path style="fill: #1f1a17" d="M 1220.67 234.809 L 1220.67,259.585 L 1241.69,247.205 L 1220.67,234.809z"/>
    <path style="fill: #ffffff" d="M 1261.83 259.153 L 1261.83,234.393 L 1241.17,246.773 L 1261.83,259.153z"/>
    <path style="fill: #ffffff" d="M 1220.41 234.393 L 1220.41,259.153 L 1241.42,246.773 L 1220.41,234.393z"/>
  </g>
  <g>
    <path style="fill: #0096d4" d="M 1257.96 147.197 L 1224.1,93.1253 L 1193.72,147.197 L 1257.96,147.197z"/>
    <path style="fill: none; fill-opacity:0; stroke-width: 0.04; stroke: #aae6ff" d="M 1257.96 147.197 L 1224.1,93.1253 L 1193.91,146.856"/>
    <path style="fill: none; fill-opacity:0; stroke-width: 0.04; stroke: #aae6ff" d="M 1193.91 147.197 L 1257.96,147.197"/>
    <path style="fill: #005a80" d="M 1224.1 93.1253 L 1232.26,85 L 1266.11,139.062 L 1257.96,146.607 L 1224.1,93.1253z"/>
    <path style="fill: none; fill-opacity:0; stroke-width: 0.04; stroke: #aae6ff" d="M 1224.1 93.1253 L 1232.26,85 L 1266.11,139.062 L 1257.96,146.607 L 1224.1,93.1253"/>
    <path style="fill: #ffffff" d="M 1229.33 109.386 L 1229.33,109.169 L 1229.3,108.931 L 1229.28,108.682 L 1229.24,108.465 L 1229.16,108.237 L 1229.1,108.02 L 1229.02,107.772 L 1228.92,107.575 L 1228.82,107.358 L 1228.7,107.161 L 1228.58,106.933 L 1228.44,106.737 L 1228.27,106.571 L 1228.14,106.385 L 1227.95,106.209 L 1227.8,106.033 L 1227.59,105.888 L 1227.41,105.743 L 1227.2,105.598 L 1227,105.474 L 1226.78,105.35 L 1226.55,105.246 L 1226.32,105.153 L 1226.08,105.049 L 1225.86,104.987 L 1225.61,104.915 L 1225.35,104.863 L 1225.11,104.822 L 1224.87,104.791 L 1224.62,104.77 L 1224.37,104.77 L 1224.37,104.77 L 1224.12,104.77 L 1223.86,104.791 L 1223.61,104.822 L 1223.38,104.863 L 1223.13,104.915 L 1222.88,104.987 L 1222.64,105.049 L 1222.41,105.153 L 1222.19,105.246 L 1221.94,105.35 L 1221.73,105.474 L 1221.53,105.598 L 1221.33,105.743 L 1221.14,105.888 L 1220.94,106.033 L 1220.77,106.209 L 1220.59,106.385 L 1220.44,106.571 L 1220.3,106.737 L 1220.15,106.933 L 1220.03,107.161 L 1219.92,107.358 L 1219.8,107.575 L 1219.72,107.772 L 1219.64,108.02 L 1219.57,108.237 L 1219.51,108.465 L 1219.45,108.682 L 1219.44,108.931 L 1219.4,109.169 L 1219.4,109.386 L 1219.4,109.386 L 1219.4,109.635 L 1219.44,109.852 L 1219.45,110.1 L 1219.51,110.339 L 1219.57,110.556 L 1219.64,110.784 L 1219.72,111.001 L 1219.8,111.229 L 1219.92,111.446 L 1220.03,111.643 L 1220.15,111.85 L 1220.3,112.046 L 1220.44,112.233 L 1220.59,112.419 L 1220.77,112.595 L 1220.94,112.75 L 1221.14,112.895 L 1221.33,113.061 L 1221.53,113.206 L 1221.73,113.32 L 1221.94,113.454 L 1222.19,113.558 L 1222.41,113.651 L 1222.64,113.754 L 1222.88,113.816 L 1223.13,113.878 L 1223.38,113.92 L 1223.61,113.982 L 1223.86,114.013 L 1224.12,114.034 L 1224.37,114.034 L 1224.37,114.034 L 1224.62,114.034 L 1224.87,114.013 L 1225.11,113.982 L 1225.35,113.92 L 1225.61,113.878 L 1225.86,113.816 L 1226.08,113.754 L 1226.32,113.651 L 1226.55,113.558 L 1226.78,113.454 L 1227,113.32 L 1227.2,113.206 L 1227.41,113.061 L 1227.59,112.895 L 1227.8,112.75 L 1227.95,112.595 L 1228.14,112.419 L 1228.27,112.233 L 1228.44,112.046 L 1228.58,111.85 L 1228.7,111.643 L 1228.82,111.446 L 1228.92,111.229 L 1229.02,111.001 L 1229.1,110.784 L 1229.16,110.556 L 1229.24,110.339 L 1229.28,110.1 L 1229.3,109.852 L 1229.33,109.635 L 1229.33,109.386z"/>
    <path style="fill: #ffffff" d="M 1241.57 138.751 L 1241.57,138.503 L 1241.55,138.254 L 1241.52,138.006 L 1241.47,137.758 L 1241.41,137.509 L 1241.35,137.261 L 1241.27,137.033 L 1241.19,136.805 L 1241.08,136.557 L 1240.99,136.329 L 1240.86,136.122 L 1240.72,135.926 L 1240.59,135.719 L 1240.43,135.522 L 1240.28,135.336 L 1240.1,135.17 L 1239.95,134.994 L 1239.76,134.839 L 1239.57,134.694 L 1239.37,134.549 L 1239.17,134.425 L 1238.94,134.311 L 1238.74,134.197 L 1238.53,134.114 L 1238.29,134.031 L 1238.07,133.969 L 1237.85,133.907 L 1237.62,133.855 L 1237.38,133.835 L 1237.13,133.804 L 1236.91,133.804 L 1236.91,133.804 L 1236.68,133.804 L 1236.42,133.835 L 1236.19,133.855 L 1235.96,133.907 L 1235.74,133.969 L 1235.51,134.031 L 1235.28,134.114 L 1235.06,134.197 L 1234.86,134.311 L 1234.64,134.425 L 1234.44,134.549 L 1234.25,134.694 L 1234.05,134.839 L 1233.86,134.994 L 1233.7,135.17 L 1233.53,135.336 L 1233.37,135.522 L 1233.22,135.719 L 1233.09,135.926 L 1232.95,136.122 L 1232.81,136.329 L 1232.72,136.557 L 1232.61,136.805 L 1232.54,137.033 L 1232.45,137.261 L 1232.39,137.509 L 1232.34,137.758 L 1232.28,138.006 L 1232.26,138.254 L 1232.24,138.503 L 1232.24,138.751 L 1232.24,138.751 L 1232.24,138.989 L 1232.26,139.238 L 1232.28,139.486 L 1232.34,139.735 L 1232.39,139.983 L 1232.45,140.231 L 1232.54,140.459 L 1232.61,140.687 L 1232.72,140.925 L 1232.81,141.153 L 1232.95,141.37 L 1233.09,141.567 L 1233.22,141.763 L 1233.37,141.96 L 1233.53,142.157 L 1233.7,142.322 L 1233.86,142.509 L 1234.05,142.653 L 1234.25,142.798 L 1234.44,142.954 L 1234.64,143.057 L 1234.86,143.181 L 1235.06,143.285 L 1235.28,143.378 L 1235.51,143.461 L 1235.74,143.523 L 1235.96,143.595 L 1236.19,143.637 L 1236.42,143.658 L 1236.68,143.689 L 1236.91,143.689 L 1236.91,143.689 L 1237.13,143.689 L 1237.38,143.658 L 1237.62,143.637 L 1237.85,143.595 L 1238.07,143.523 L 1238.29,143.461 L 1238.53,143.378 L 1238.74,143.285 L 1238.94,143.181 L 1239.17,143.057 L 1239.37,142.954 L 1239.57,142.798 L 1239.76,142.653 L 1239.95,142.509 L 1240.1,142.322 L 1240.28,142.157 L 1240.43,141.96 L 1240.59,141.763 L 1240.72,141.567 L 1240.86,141.37 L 1240.99,141.153 L 1241.08,140.925 L 1241.19,140.687 L 1241.27,140.459 L 1241.35,140.231 L 1241.41,139.983 L 1241.47,139.735 L 1241.52,139.486 L 1241.55,139.238 L 1241.57,138.989 L 1241.57,138.751z"/>
    <path style="fill: #ffffff" d="M 1216.43 138.751 L 1216.43,138.503 L 1216.43,138.254 L 1216.4,138.006 L 1216.35,137.758 L 1216.3,137.509 L 1216.23,137.261 L 1216.16,137.033 L 1216.07,136.805 L 1215.97,136.557 L 1215.85,136.329 L 1215.73,136.122 L 1215.62,135.926 L 1215.46,135.719 L 1215.32,135.522 L 1215.17,135.336 L 1215,135.17 L 1214.82,134.994 L 1214.64,134.839 L 1214.46,134.694 L 1214.26,134.549 L 1214.04,134.425 L 1213.84,134.311 L 1213.64,134.197 L 1213.42,134.114 L 1213.19,134.031 L 1212.94,133.969 L 1212.74,133.907 L 1212.51,133.855 L 1212.26,133.835 L 1212.02,133.804 L 1211.79,133.804 L 1211.79,133.804 L 1211.57,133.804 L 1211.33,133.835 L 1211.09,133.855 L 1210.85,133.907 L 1210.65,133.969 L 1210.41,134.031 L 1210.18,134.114 L 1209.95,134.197 L 1209.74,134.311 L 1209.55,134.425 L 1209.32,134.549 L 1209.12,134.694 L 1208.96,134.839 L 1208.77,134.994 L 1208.59,135.17 L 1208.41,135.336 L 1208.28,135.522 L 1208.13,135.719 L 1207.96,135.926 L 1207.86,136.122 L 1207.73,136.329 L 1207.62,136.557 L 1207.53,136.805 L 1207.44,137.033 L 1207.36,137.261 L 1207.3,137.509 L 1207.24,137.758 L 1207.19,138.006 L 1207.17,138.254 L 1207.15,138.503 L 1207.15,138.751 L 1207.15,138.751 L 1207.15,138.989 L 1207.17,139.238 L 1207.19,139.486 L 1207.24,139.735 L 1207.3,139.983 L 1207.36,140.231 L 1207.44,140.459 L 1207.53,140.687 L 1207.62,140.925 L 1207.73,141.153 L 1207.86,141.37 L 1207.96,141.567 L 1208.13,141.763 L 1208.28,141.96 L 1208.41,142.157 L 1208.59,142.322 L 1208.77,142.509 L 1208.96,142.653 L 1209.12,142.798 L 1209.32,142.954 L 1209.55,143.057 L 1209.74,143.181 L 1209.95,143.285 L 1210.18,143.378 L 1210.41,143.461 L 1210.65,143.523 L 1210.85,143.595 L 1211.09,143.637 L 1211.33,143.658 L 1211.57,143.689 L 1211.79,143.689 L 1211.79,143.689 L 1212.02,143.689 L 1212.26,143.658 L 1212.51,143.637 L 1212.74,143.595 L 1212.94,143.523 L 1213.19,143.461 L 1213.42,143.378 L 1213.64,143.285 L 1213.84,143.181 L 1214.04,143.057 L 1214.26,142.954 L 1214.46,142.798 L 1214.64,142.653 L 1214.82,142.509 L 1215,142.322 L 1215.17,142.157 L 1215.32,141.96 L 1215.46,141.763 L 1215.62,141.567 L 1215.73,141.37 L 1215.85,141.153 L 1215.97,140.925 L 1216.07,140.687 L 1216.16,140.459 L 1216.23,140.231 L 1216.3,139.983 L 1216.35,139.735 L 1216.4,139.486 L 1216.43,139.238 L 1216.43,138.989 L 1216.43,138.751z"/>
    <path style="fill: #ffffff" d="M 1229.33 126.237 L 1229.33,126.01 L 1229.3,125.751 L 1229.28,125.523 L 1229.24,125.306 L 1229.16,125.068 L 1229.1,124.861 L 1229.02,124.623 L 1228.92,124.416 L 1228.82,124.198 L 1228.7,123.97 L 1228.58,123.784 L 1228.44,123.587 L 1228.27,123.391 L 1228.14,123.194 L 1227.95,123.039 L 1227.8,122.873 L 1227.59,122.718 L 1227.41,122.563 L 1227.2,122.439 L 1227,122.304 L 1226.78,122.169 L 1226.55,122.066 L 1226.32,121.973 L 1226.08,121.88 L 1225.86,121.807 L 1225.61,121.745 L 1225.35,121.683 L 1225.11,121.642 L 1224.87,121.61 L 1224.62,121.59 L 1224.37,121.59 L 1224.37,121.59 L 1224.12,121.59 L 1223.86,121.61 L 1223.61,121.642 L 1223.38,121.683 L 1223.13,121.745 L 1222.88,121.807 L 1222.64,121.88 L 1222.41,121.973 L 1222.19,122.066 L 1221.94,122.169 L 1221.73,122.304 L 1221.53,122.439 L 1221.33,122.563 L 1221.14,122.718 L 1220.94,122.873 L 1220.77,123.039 L 1220.59,123.194 L 1220.44,123.391 L 1220.3,123.587 L 1220.15,123.784 L 1220.03,123.97 L 1219.92,124.198 L 1219.8,124.416 L 1219.72,124.623 L 1219.64,124.861 L 1219.57,125.068 L 1219.51,125.306 L 1219.45,125.523 L 1219.44,125.751 L 1219.4,126.01 L 1219.4,126.237 L 1219.4,126.237 L 1219.4,126.465 L 1219.44,126.713 L 1219.45,126.951 L 1219.51,127.179 L 1219.57,127.407 L 1219.64,127.624 L 1219.72,127.852 L 1219.8,128.069 L 1219.92,128.276 L 1220.03,128.494 L 1220.15,128.69 L 1220.3,128.897 L 1220.44,129.084 L 1220.59,129.27 L 1220.77,129.436 L 1220.94,129.601 L 1221.14,129.767 L 1221.33,129.912 L 1221.53,130.046 L 1221.73,130.181 L 1221.94,130.315 L 1222.19,130.409 L 1222.41,130.512 L 1222.64,130.595 L 1222.88,130.678 L 1223.13,130.74 L 1223.38,130.792 L 1223.61,130.833 L 1223.86,130.864 L 1224.12,130.885 L 1224.37,130.885 L 1224.37,130.885 L 1224.62,130.885 L 1224.87,130.864 L 1225.11,130.833 L 1225.35,130.792 L 1225.61,130.74 L 1225.86,130.678 L 1226.08,130.595 L 1226.32,130.512 L 1226.55,130.409 L 1226.78,130.315 L 1227,130.181 L 1227.2,130.046 L 1227.41,129.912 L 1227.59,129.767 L 1227.8,129.601 L 1227.95,129.436 L 1228.14,129.27 L 1228.27,129.084 L 1228.44,128.897 L 1228.58,128.69 L 1228.7,128.494 L 1228.82,128.276 L 1228.92,128.069 L 1229.02,127.852 L 1229.1,127.624 L 1229.16,127.407 L 1229.24,127.179 L 1229.28,126.951 L 1229.3,126.713 L 1229.33,126.465 L 1229.33,126.237z"/>
    <path style="fill: #ffffff" d="M 1222.93 108.817 L 1222.93,123.939 L 1225.26,123.939 L 1225.26,108.817 L 1222.93,108.817z"/>
    <path style="fill: #ffffff" d="M 1224.1 128.007 L 1234.59,139.062 L 1236.33,137.313 L 1225.84,126.268 L 1224.1,128.007z"/>
    <path style="fill: #ffffff" d="M 1212.98 139.062 L 1223.51,128.007 L 1221.74,126.268 L 1211.25,137.313 L 1212.98,139.062z"/>
  </g>
  <g>
    <rect style="fill: #ffffff" x="1324" y="218" width="34" height="30"/>
    <ellipse style="fill: #ffffff" cx="1341" cy="248" rx="17" ry="5"/>
    <ellipse style="fill: #ffffff" cx="1341" cy="218" rx="17" ry="5"/>
    <ellipse style="fill: none; fill-opacity:0; stroke-width: 2; stroke: #000000" cx="1341" cy="218" rx="17" ry="5"/>
    <path style="fill: none; fill-opacity:0; stroke-width: 2; stroke: #000000" d="M 1358 218 L 1358,248 C 1358,250.761 1350.39,253 1341,253 C 1331.61,253 1324,250.761 1324,248 L 1324,218"/>
    <text font-size="12.8" style="fill: #000000;text-anchor:middle;font-family:sans-serif;font-style:normal;font-weight:normal" x="1341" y="265">
      <tspan x="1341" y="265">LDAP</tspan>
    </text>
  </g>
  <text font-size="12.7998" style="fill: #000000;text-anchor:start;font-family:sans-serif;font-style:normal;font-weight:normal" x="139" y="392">
    <tspan x="139" y="392">SIP</tspan>
  </text>
  <text font-size="12.7998" style="fill: #000000;text-anchor:start;font-family:sans-serif;font-style:normal;font-weight:normal" x="1235" y="280">
    <tspan x="1235" y="280">SIP</tspan>
  </text>
  <text font-size="12.7998" style="fill: #000000;text-anchor:start;font-family:sans-serif;font-style:normal;font-weight:normal" x="1207" y="159">
    <tspan x="1207" y="159">XMPP</tspan>
  </text>
  <g>
    <path style="fill: none; fill-opacity:0; stroke-width: 2; stroke: #000000" d="M 1117.51 188 C 1033,224 971,128 860.562,121.149"/>
    <polygon style="fill: #000000" points="853.076,120.685 863.366,116.313 860.562,121.149 862.747,126.294 "/>
    <polygon style="fill: none; fill-opacity:0; stroke-width: 2; stroke: #000000" points="853.076,120.685 863.366,116.313 860.562,121.149 862.747,126.294 "/>
  </g>
  <text font-size="12.7998" style="fill: #000000;text-anchor:start;font-family:sans-serif;font-style:normal;font-weight:normal" x="1298" y="179">
    <tspan x="1298" y="179"></tspan>
  </text>
  <g>
    <polygon style="fill: none; fill-opacity:0; stroke-width: 2; stroke: #000000" points="501.436,131.187 428.103,241.187 281.435,241.187 208.102,131.187 281.435,21.1866 428.103,21.1866 "/>
    <text font-size="12.8" style="fill: #000000;text-anchor:middle;font-family:monospace;font-style:normal;font-weight:normal" x="354.769" y="129.687">
      <tspan x="354.769" y="129.687">lapaz.gob.bo</tspan>
    </text>
  </g>
  <g>
    <path style="fill: #0096d4" d="M 330.639 109.187 L 284.914,36.1606 L 243.885,109.187 L 330.639,109.187z"/>
    <path style="fill: none; fill-opacity:0; stroke-width: 0.04; stroke: #aae6ff" d="M 330.639 109.187 L 284.914,36.1606 L 244.137,108.726"/>
    <path style="fill: none; fill-opacity:0; stroke-width: 0.04; stroke: #aae6ff" d="M 244.137 109.187 L 330.639,109.187"/>
    <path style="fill: #005a80" d="M 284.914 36.1606 L 295.929,25.187 L 341.654,98.1995 L 330.639,108.39 L 284.914,36.1606z"/>
    <path style="fill: none; fill-opacity:0; stroke-width: 0.04; stroke: #aae6ff" d="M 284.914 36.1606 L 295.929,25.187 L 341.654,98.1995 L 330.639,108.39 L 284.914,36.1606"/>
    <path style="fill: #ffffff" d="M 291.973 58.1216 L 291.973,57.8281 L 291.931,57.5066 L 291.903,57.1711 L 291.847,56.8775 L 291.749,56.57 L 291.665,56.2764 L 291.554,55.9409 L 291.428,55.6753 L 291.288,55.3818 L 291.12,55.1162 L 290.966,54.8086 L 290.771,54.543 L 290.547,54.3193 L 290.365,54.0677 L 290.114,53.8301 L 289.904,53.5924 L 289.624,53.3967 L 289.387,53.201 L 289.093,53.0053 L 288.828,52.8376 L 288.534,52.6698 L 288.227,52.53 L 287.905,52.4042 L 287.584,52.2644 L 287.29,52.1806 L 286.954,52.0827 L 286.605,52.0128 L 286.269,51.9569 L 285.948,51.915 L 285.612,51.887 L 285.277,51.887 L 285.277,51.887 L 284.941,51.887 L 284.592,51.915 L 284.256,51.9569 L 283.935,52.0128 L 283.599,52.0827 L 283.264,52.1806 L 282.942,52.2644 L 282.635,52.4042 L 282.327,52.53 L 281.992,52.6698 L 281.712,52.8376 L 281.447,53.0053 L 281.167,53.201 L 280.916,53.3967 L 280.65,53.5924 L 280.412,53.8301 L 280.175,54.0677 L 279.965,54.3193 L 279.783,54.543 L 279.574,54.8086 L 279.42,55.1162 L 279.266,55.3818 L 279.098,55.6753 L 279,55.9409 L 278.889,56.2764 L 278.791,56.57 L 278.707,56.8775 L 278.637,57.1711 L 278.623,57.5066 L 278.567,57.8281 L 278.567,58.1216 L 278.567,58.1216 L 278.567,58.4571 L 278.623,58.7507 L 278.637,59.0862 L 278.707,59.4077 L 278.791,59.7013 L 278.889,60.0088 L 279,60.3024 L 279.098,60.6099 L 279.266,60.9035 L 279.42,61.1691 L 279.574,61.4487 L 279.783,61.7143 L 279.965,61.9659 L 280.175,62.2175 L 280.412,62.4551 L 280.65,62.6648 L 280.916,62.8605 L 281.167,63.0842 L 281.447,63.2799 L 281.712,63.4337 L 281.992,63.6154 L 282.327,63.7552 L 282.635,63.881 L 282.942,64.0208 L 283.264,64.1047 L 283.599,64.1885 L 283.935,64.2445 L 284.256,64.3283 L 284.592,64.3703 L 284.941,64.3982 L 285.277,64.3982 L 285.277,64.3982 L 285.612,64.3982 L 285.948,64.3703 L 286.269,64.3283 L 286.605,64.2445 L 286.954,64.1885 L 287.29,64.1047 L 287.584,64.0208 L 287.905,63.881 L 288.227,63.7552 L 288.534,63.6154 L 288.828,63.4337 L 289.093,63.2799 L 289.387,63.0842 L 289.624,62.8605 L 289.904,62.6648 L 290.114,62.4551 L 290.365,62.2175 L 290.547,61.9659 L 290.771,61.7143 L 290.966,61.4487 L 291.12,61.1691 L 291.288,60.9035 L 291.428,60.6099 L 291.554,60.3024 L 291.665,60.0088 L 291.749,59.7013 L 291.847,59.4077 L 291.903,59.0862 L 291.931,58.7507 L 291.973,58.4571 L 291.973,58.1216z"/>
    <path style="fill: #ffffff" d="M 308.51 97.7802 L 308.51,97.4447 L 308.482,97.1092 L 308.44,96.7737 L 308.37,96.4382 L 308.286,96.1027 L 308.203,95.7672 L 308.105,95.4596 L 307.993,95.1521 L 307.839,94.8166 L 307.727,94.5091 L 307.546,94.2295 L 307.364,93.9639 L 307.182,93.6843 L 306.972,93.4187 L 306.763,93.1671 L 306.525,92.9434 L 306.315,92.7058 L 306.064,92.4961 L 305.798,92.3004 L 305.533,92.1047 L 305.267,91.9369 L 304.959,91.7832 L 304.68,91.6294 L 304.4,91.5175 L 304.079,91.4057 L 303.785,91.3218 L 303.478,91.238 L 303.17,91.1681 L 302.849,91.1401 L 302.513,91.0982 L 302.206,91.0982 L 302.206,91.0982 L 301.898,91.0982 L 301.549,91.1401 L 301.241,91.1681 L 300.933,91.238 L 300.626,91.3218 L 300.318,91.4057 L 300.011,91.5175 L 299.717,91.6294 L 299.438,91.7832 L 299.144,91.9369 L 298.879,92.1047 L 298.613,92.3004 L 298.347,92.4961 L 298.096,92.7058 L 297.872,92.9434 L 297.648,93.1671 L 297.425,93.4187 L 297.229,93.6843 L 297.047,93.9639 L 296.866,94.2295 L 296.67,94.5091 L 296.558,94.8166 L 296.404,95.1521 L 296.306,95.4596 L 296.195,95.7672 L 296.111,96.1027 L 296.041,96.4382 L 295.957,96.7737 L 295.929,97.1092 L 295.901,97.4447 L 295.901,97.7802 L 295.901,97.7802 L 295.901,98.1017 L 295.929,98.4372 L 295.957,98.7727 L 296.041,99.1082 L 296.111,99.4437 L 296.195,99.7792 L 296.306,100.087 L 296.404,100.394 L 296.558,100.716 L 296.67,101.023 L 296.866,101.317 L 297.047,101.582 L 297.229,101.848 L 297.425,102.114 L 297.648,102.379 L 297.872,102.603 L 298.096,102.855 L 298.347,103.05 L 298.613,103.246 L 298.879,103.456 L 299.144,103.595 L 299.438,103.763 L 299.717,103.903 L 300.011,104.029 L 300.318,104.141 L 300.626,104.224 L 300.933,104.322 L 301.241,104.378 L 301.549,104.406 L 301.898,104.448 L 302.206,104.448 L 302.206,104.448 L 302.513,104.448 L 302.849,104.406 L 303.17,104.378 L 303.478,104.322 L 303.785,104.224 L 304.079,104.141 L 304.4,104.029 L 304.68,103.903 L 304.959,103.763 L 305.267,103.595 L 305.533,103.456 L 305.798,103.246 L 306.064,103.05 L 306.315,102.855 L 306.525,102.603 L 306.763,102.379 L 306.972,102.114 L 307.182,101.848 L 307.364,101.582 L 307.546,101.317 L 307.727,101.023 L 307.839,100.716 L 307.993,100.394 L 308.105,100.087 L 308.203,99.7792 L 308.286,99.4437 L 308.37,99.1082 L 308.44,98.7727 L 308.482,98.4372 L 308.51,98.1017 L 308.51,97.7802z"/>
    <path style="fill: #ffffff" d="M 274.555 97.7802 L 274.555,97.4447 L 274.555,97.1092 L 274.513,96.7737 L 274.443,96.4382 L 274.373,96.1027 L 274.289,95.7672 L 274.192,95.4596 L 274.066,95.1521 L 273.926,94.8166 L 273.772,94.5091 L 273.604,94.2295 L 273.465,93.9639 L 273.241,93.6843 L 273.059,93.4187 L 272.85,93.1671 L 272.626,92.9434 L 272.374,92.7058 L 272.137,92.4961 L 271.899,92.3004 L 271.619,92.1047 L 271.326,91.9369 L 271.06,91.7832 L 270.781,91.6294 L 270.487,91.5175 L 270.18,91.4057 L 269.844,91.3218 L 269.565,91.238 L 269.257,91.1681 L 268.922,91.1401 L 268.6,91.0982 L 268.292,91.0982 L 268.292,91.0982 L 267.985,91.0982 L 267.663,91.1401 L 267.342,91.1681 L 267.02,91.238 L 266.741,91.3218 L 266.419,91.4057 L 266.112,91.5175 L 265.804,91.6294 L 265.525,91.7832 L 265.259,91.9369 L 264.951,92.1047 L 264.686,92.3004 L 264.462,92.4961 L 264.211,92.7058 L 263.959,92.9434 L 263.721,93.1671 L 263.54,93.4187 L 263.344,93.6843 L 263.12,93.9639 L 262.98,94.2295 L 262.799,94.5091 L 262.659,94.8166 L 262.533,95.1521 L 262.407,95.4596 L 262.309,95.7672 L 262.226,96.1027 L 262.142,96.4382 L 262.072,96.7737 L 262.044,97.1092 L 262.016,97.4447 L 262.016,97.7802 L 262.016,97.7802 L 262.016,98.1017 L 262.044,98.4372 L 262.072,98.7727 L 262.142,99.1082 L 262.226,99.4437 L 262.309,99.7792 L 262.407,100.087 L 262.533,100.394 L 262.659,100.716 L 262.799,101.023 L 262.98,101.317 L 263.12,101.582 L 263.344,101.848 L 263.54,102.114 L 263.721,102.379 L 263.959,102.603 L 264.211,102.855 L 264.462,103.05 L 264.686,103.246 L 264.951,103.456 L 265.259,103.595 L 265.525,103.763 L 265.804,103.903 L 266.112,104.029 L 266.419,104.141 L 266.741,104.224 L 267.02,104.322 L 267.342,104.378 L 267.663,104.406 L 267.985,104.448 L 268.292,104.448 L 268.292,104.448 L 268.6,104.448 L 268.922,104.406 L 269.257,104.378 L 269.565,104.322 L 269.844,104.224 L 270.18,104.141 L 270.487,104.029 L 270.781,103.903 L 271.06,103.763 L 271.326,103.595 L 271.619,103.456 L 271.899,103.246 L 272.137,103.05 L 272.374,102.855 L 272.626,102.603 L 272.85,102.379 L 273.059,102.114 L 273.241,101.848 L 273.465,101.582 L 273.604,101.317 L 273.772,101.023 L 273.926,100.716 L 274.066,100.394 L 274.192,100.087 L 274.289,99.7792 L 274.373,99.4437 L 274.443,99.1082 L 274.513,98.7727 L 274.555,98.4372 L 274.555,98.1017 L 274.555,97.7802z"/>
    <path style="fill: #ffffff" d="M 291.973 80.8795 L 291.973,80.572 L 291.931,80.2225 L 291.903,79.915 L 291.847,79.6214 L 291.749,79.2999 L 291.665,79.0203 L 291.554,78.6988 L 291.428,78.4192 L 291.288,78.1256 L 291.12,77.8181 L 290.966,77.5665 L 290.771,77.3009 L 290.547,77.0353 L 290.365,76.7697 L 290.114,76.56 L 289.904,76.3363 L 289.624,76.1266 L 289.387,75.9169 L 289.093,75.7492 L 288.828,75.5675 L 288.534,75.3857 L 288.227,75.246 L 287.905,75.1201 L 287.584,74.9943 L 287.29,74.8965 L 286.954,74.8126 L 286.605,74.7287 L 286.269,74.6728 L 285.948,74.6309 L 285.612,74.6029 L 285.277,74.6029 L 285.277,74.6029 L 284.941,74.6029 L 284.592,74.6309 L 284.256,74.6728 L 283.935,74.7287 L 283.599,74.8126 L 283.264,74.8965 L 282.942,74.9943 L 282.635,75.1201 L 282.327,75.246 L 281.992,75.3857 L 281.712,75.5675 L 281.447,75.7492 L 281.167,75.9169 L 280.916,76.1266 L 280.65,76.3363 L 280.412,76.56 L 280.175,76.7697 L 279.965,77.0353 L 279.783,77.3009 L 279.574,77.5665 L 279.42,77.8181 L 279.266,78.1256 L 279.098,78.4192 L 279,78.6988 L 278.889,79.0203 L 278.791,79.2999 L 278.707,79.6214 L 278.637,79.915 L 278.623,80.2225 L 278.567,80.572 L 278.567,80.8795 L 278.567,80.8795 L 278.567,81.187 L 278.623,81.5225 L 278.637,81.8441 L 278.707,82.1516 L 278.791,82.4591 L 278.889,82.7527 L 279,83.0602 L 279.098,83.3538 L 279.266,83.6334 L 279.42,83.9269 L 279.574,84.1925 L 279.783,84.4721 L 279.965,84.7237 L 280.175,84.9754 L 280.412,85.199 L 280.65,85.4227 L 280.916,85.6464 L 281.167,85.8421 L 281.447,86.0238 L 281.712,86.2055 L 281.992,86.3872 L 282.327,86.5131 L 282.635,86.6528 L 282.942,86.7647 L 283.264,86.8765 L 283.599,86.9604 L 283.935,87.0303 L 284.256,87.0862 L 284.592,87.1281 L 284.941,87.1561 L 285.277,87.1561 L 285.277,87.1561 L 285.612,87.1561 L 285.948,87.1281 L 286.269,87.0862 L 286.605,87.0303 L 286.954,86.9604 L 287.29,86.8765 L 287.584,86.7647 L 287.905,86.6528 L 288.227,86.5131 L 288.534,86.3872 L 288.828,86.2055 L 289.093,86.0238 L 289.387,85.8421 L 289.624,85.6464 L 289.904,85.4227 L 290.114,85.199 L 290.365,84.9754 L 290.547,84.7237 L 290.771,84.4721 L 290.966,84.1925 L 291.12,83.9269 L 291.288,83.6334 L 291.428,83.3538 L 291.554,83.0602 L 291.665,82.7527 L 291.749,82.4591 L 291.847,82.1516 L 291.903,81.8441 L 291.931,81.5225 L 291.973,81.187 L 291.973,80.8795z"/>
    <path style="fill: #ffffff" d="M 283.334 57.3528 L 283.334,77.7762 L 286.479,77.7762 L 286.479,57.3528 L 283.334,57.3528z"/>
    <path style="fill: #ffffff" d="M 284.914 83.2699 L 299.074,98.1995 L 301.423,95.8371 L 287.262,80.9214 L 284.914,83.2699z"/>
    <path style="fill: #ffffff" d="M 269.9 98.1995 L 284.117,83.2699 L 281.726,80.9214 L 267.552,95.8371 L 269.9,98.1995z"/>
  </g>
  <text font-size="12.8" style="fill: #000000;text-anchor:start;font-family:sans-serif;font-style:normal;font-weight:normal" x="354.769" y="131.187">
    <tspan x="354.769" y="131.187"></tspan>
  </text>
  <text font-size="12.8" style="fill: #000000;text-anchor:start;font-family:sans-serif;font-style:normal;font-weight:normal" x="364.889" y="264.733">
    <tspan x="364.889" y="264.733"></tspan>
  </text>
  <text font-size="12.8" style="fill: #000000;text-anchor:start;font-family:sans-serif;font-style:normal;font-weight:normal" x="342.769" y="206.187">
    <tspan x="342.769" y="206.187"></tspan>
  </text>
  <text font-size="12.8" style="fill: #000000;text-anchor:start;font-family:sans-serif;font-style:normal;font-weight:normal" x="262.885" y="121.187">
    <tspan x="262.885" y="121.187">XMPP</tspan>
  </text>
  <text font-size="12.8" style="fill: #000000;text-anchor:start;font-family:sans-serif;font-style:normal;font-weight:normal" x="281.435" y="21.1866">
    <tspan x="281.435" y="21.1866">Institución Publica</tspan>
  </text>
  <g>
    <rect style="fill: #ffffff" x="394.654" y="51.187" width="34" height="30"/>
    <ellipse style="fill: #ffffff" cx="411.654" cy="81.187" rx="17" ry="5"/>
    <ellipse style="fill: #ffffff" cx="411.654" cy="51.187" rx="17" ry="5"/>
    <ellipse style="fill: none; fill-opacity:0; stroke-width: 2; stroke: #000000" cx="411.654" cy="51.187" rx="17" ry="5"/>
    <path style="fill: none; fill-opacity:0; stroke-width: 2; stroke: #000000" d="M 428.654 51.187 L 428.654,81.187 C 428.654,83.9485 421.043,86.187 411.654,86.187 C 402.266,86.187 394.654,83.9485 394.654,81.187 L 394.654,51.187"/>
    <text font-size="12.8" style="fill: #000000;text-anchor:middle;font-family:sans-serif;font-style:normal;font-weight:normal" x="411.654" y="98.187">
      <tspan x="411.654" y="98.187">LDAP</tspan>
    </text>
  </g>
  <g>
    <path style="fill: #1c97cd" d="M 389.003 208.069 L 334.556,208.069 L 334.556,173.867 L 389.003,173.867 L 389.003,208.069z"/>
    <path style="fill: none; fill-opacity:0; stroke-width: 0.02; stroke: #add6e7" d="M 389.003 208.069 L 334.556,208.069 L 334.556,173.867 L 389.003,173.867 L 389.003,208.069"/>
    <path style="fill: #076086" d="M 389.01 208.187 L 394.753,202.374 L 394.753,168.187 L 389.01,173.977 L 389.01,208.187z"/>
    <path style="fill: none; fill-opacity:0; stroke-width: 0.02; stroke: #add6e7" d="M 389.01 208.187 L 394.753,202.374 L 394.753,168.187 L 389.01,173.977 L 389.01,208.187"/>
    <path style="fill: #3cafe4" d="M 389.01 173.977 L 394.753,168.187 L 340.322,168.187 L 334.564,173.977 L 389.01,173.977z"/>
    <path style="fill: none; fill-opacity:0; stroke-width: 0.02; stroke: #add6e7" d="M 389.01 173.977 L 394.753,168.187 L 340.322,168.187 L 334.564,173.977 L 389.01,173.977"/>
    <path style="fill: #1f1a17" d="M 382.734 203.772 L 382.734,178.996 L 362.074,191.392 L 382.734,203.772z"/>
    <path style="fill: #1f1a17" d="M 341.328 178.996 L 341.328,203.772 L 362.341,191.392 L 341.328,178.996z"/>
    <path style="fill: #ffffff" d="M 382.483 203.34 L 382.483,178.58 L 361.823,190.96 L 382.483,203.34z"/>
    <path style="fill: #ffffff" d="M 341.069 178.58 L 341.069,203.34 L 362.074,190.96 L 341.069,178.58z"/>
  </g>
  <text font-size="12.7998" style="fill: #000000;text-anchor:start;font-family:sans-serif;font-style:normal;font-weight:normal" x="350.759" y="218.962">
    <tspan x="350.759" y="218.962">SIP</tspan>
  </text>
  <text font-size="12.7998" style="fill: #000000;text-anchor:start;font-family:sans-serif;font-style:normal;font-weight:normal" x="365" y="124">
    <tspan x="365" y="124"></tspan>
  </text>
  <g>
    <path style="fill: none; fill-opacity:0; stroke-width: 2; stroke: #000000" d="M 501.436 131.187 C 519,66 645,7 679.375,23.5319"/>
    <polygon style="fill: #000000" points="686.134,26.7824 674.955,26.9544 679.375,23.5319 679.289,17.9424 "/>
    <polygon style="fill: none; fill-opacity:0; stroke-width: 2; stroke: #000000" points="686.134,26.7824 674.955,26.9544 679.375,23.5319 679.289,17.9424 "/>
  </g>
</svg>
