<?xml version="1.0" encoding="UTF-8" standalone="no"?>
<!-- Created with Inkscape (http://www.inkscape.org/) -->

<svg
   xmlns:dc="http://purl.org/dc/elements/1.1/"
   xmlns:cc="http://creativecommons.org/ns#"
   xmlns:rdf="http://www.w3.org/1999/02/22-rdf-syntax-ns#"
   xmlns:svg="http://www.w3.org/2000/svg"
   xmlns="http://www.w3.org/2000/svg"
   xmlns:sodipodi="http://sodipodi.sourceforge.net/DTD/sodipodi-0.dtd"
   xmlns:inkscape="http://www.inkscape.org/namespaces/inkscape"
   width="90.122276mm"
   height="57.989456mm"
   viewBox="0 0 319.3309 205.47445"
   id="svg2"
   version="1.1"
   inkscape:version="0.91 r13725"
   sodipodi:docname="diagramaCentroDeDatos.svg">
  <defs
     id="defs4">
    <marker
       inkscape:isstock="true"
       style="overflow:visible"
       id="marker5128"
       refX="0"
       refY="0"
       orient="auto"
       inkscape:stockid="Arrow1Lend">
      <path
         transform="matrix(-0.8,0,0,-0.8,-10,0)"
         style="fill:#000000;fill-opacity:1;fill-rule:evenodd;stroke:#000000;stroke-width:1pt;stroke-opacity:1"
         d="M 0,0 5,-5 -12.5,0 5,5 0,0 Z"
         id="path5130"
         inkscape:connector-curvature="0" />
    </marker>
    <marker
       inkscape:isstock="true"
       style="overflow:visible"
       id="marker5058"
       refX="0"
       refY="0"
       orient="auto"
       inkscape:stockid="Arrow1Lend">
      <path
         transform="matrix(-0.8,0,0,-0.8,-10,0)"
         style="fill:#000000;fill-opacity:1;fill-rule:evenodd;stroke:#000000;stroke-width:1pt;stroke-opacity:1"
         d="M 0,0 5,-5 -12.5,0 5,5 0,0 Z"
         id="path5060"
         inkscape:connector-curvature="0" />
    </marker>
    <marker
       inkscape:isstock="true"
       style="overflow:visible"
       id="marker5000"
       refX="0"
       refY="0"
       orient="auto"
       inkscape:stockid="Arrow1Lend">
      <path
         transform="matrix(-0.8,0,0,-0.8,-10,0)"
         style="fill:#000000;fill-opacity:1;fill-rule:evenodd;stroke:#000000;stroke-width:1pt;stroke-opacity:1"
         d="M 0,0 5,-5 -12.5,0 5,5 0,0 Z"
         id="path5002"
         inkscape:connector-curvature="0" />
    </marker>
    <marker
       inkscape:stockid="Arrow1Lend"
       orient="auto"
       refY="0"
       refX="0"
       id="Arrow1Lend"
       style="overflow:visible"
       inkscape:isstock="true"
       inkscape:collect="always">
      <path
         id="path4401"
         d="M 0,0 5,-5 -12.5,0 5,5 0,0 Z"
         style="fill:#000000;fill-opacity:1;fill-rule:evenodd;stroke:#000000;stroke-width:1pt;stroke-opacity:1"
         transform="matrix(-0.8,0,0,-0.8,-10,0)"
         inkscape:connector-curvature="0" />
    </marker>
    <marker
       inkscape:isstock="true"
       style="overflow:visible"
       id="marker4892"
       refX="0"
       refY="0"
       orient="auto"
       inkscape:stockid="Arrow1Lstart">
      <path
         transform="matrix(0.8,0,0,0.8,10,0)"
         style="fill:#000000;fill-opacity:1;fill-rule:evenodd;stroke:#000000;stroke-width:1pt;stroke-opacity:1"
         d="M 0,0 5,-5 -12.5,0 5,5 0,0 Z"
         id="path4894"
         inkscape:connector-curvature="0" />
    </marker>
    <marker
       inkscape:isstock="true"
       style="overflow:visible"
       id="marker4852"
       refX="0"
       refY="0"
       orient="auto"
       inkscape:stockid="Arrow1Lstart">
      <path
         transform="matrix(0.8,0,0,0.8,10,0)"
         style="fill:#000000;fill-opacity:1;fill-rule:evenodd;stroke:#000000;stroke-width:1pt;stroke-opacity:1"
         d="M 0,0 5,-5 -12.5,0 5,5 0,0 Z"
         id="path4854"
         inkscape:connector-curvature="0" />
    </marker>
    <marker
       inkscape:isstock="true"
       style="overflow:visible"
       id="marker4818"
       refX="0"
       refY="0"
       orient="auto"
       inkscape:stockid="Arrow1Lstart">
      <path
         transform="matrix(0.8,0,0,0.8,10,0)"
         style="fill:#000000;fill-opacity:1;fill-rule:evenodd;stroke:#000000;stroke-width:1pt;stroke-opacity:1"
         d="M 0,0 5,-5 -12.5,0 5,5 0,0 Z"
         id="path4820"
         inkscape:connector-curvature="0" />
    </marker>
    <marker
       inkscape:stockid="Arrow2Lend"
       orient="auto"
       refY="0"
       refX="0"
       id="Arrow2Lend"
       style="overflow:visible"
       inkscape:isstock="true">
      <path
         id="path4419"
         style="fill:#000000;fill-opacity:1;fill-rule:evenodd;stroke:#000000;stroke-width:0.625;stroke-linejoin:round;stroke-opacity:1"
         d="M 8.7185878,4.0337352 -2.2072895,0.01601326 8.7185884,-4.0017078 c -1.7454984,2.3720609 -1.7354408,5.6174519 -6e-7,8.035443 z"
         transform="matrix(-1.1,0,0,-1.1,-1.1,0)"
         inkscape:connector-curvature="0" />
    </marker>
    <marker
       inkscape:stockid="Arrow1Lstart"
       orient="auto"
       refY="0"
       refX="0"
       id="marker4716"
       style="overflow:visible"
       inkscape:isstock="true"
       inkscape:collect="always">
      <path
         id="path4718"
         d="M 0,0 5,-5 -12.5,0 5,5 0,0 Z"
         style="fill:#000000;fill-opacity:1;fill-rule:evenodd;stroke:#000000;stroke-width:1pt;stroke-opacity:1"
         transform="matrix(0.8,0,0,0.8,10,0)"
         inkscape:connector-curvature="0" />
    </marker>
    <marker
       inkscape:stockid="Arrow1Lstart"
       orient="auto"
       refY="0"
       refX="0"
       id="Arrow1Lstart"
       style="overflow:visible"
       inkscape:isstock="true">
      <path
         id="path4398"
         d="M 0,0 5,-5 -12.5,0 5,5 0,0 Z"
         style="fill:#000000;fill-opacity:1;fill-rule:evenodd;stroke:#000000;stroke-width:1pt;stroke-opacity:1"
         transform="matrix(0.8,0,0,0.8,10,0)"
         inkscape:connector-curvature="0" />
    </marker>
  </defs>
  <sodipodi:namedview
     id="base"
     pagecolor="#ffffff"
     bordercolor="#666666"
     borderopacity="1.0"
     inkscape:pageopacity="0.0"
     inkscape:pageshadow="2"
     inkscape:zoom="2.9817876"
     inkscape:cx="179.77623"
     inkscape:cy="89.304076"
     inkscape:document-units="px"
     inkscape:current-layer="layer1"
     showgrid="false"
     fit-margin-top="0"
     fit-margin-left="0"
     fit-margin-right="0"
     fit-margin-bottom="0"
     inkscape:window-width="1916"
     inkscape:window-height="1041"
     inkscape:window-x="0"
     inkscape:window-y="18"
     inkscape:window-maximized="0" />
  <metadata
     id="metadata7">
    <rdf:RDF>
      <cc:Work
         rdf:about="">
        <dc:format>image/svg+xml</dc:format>
        <dc:type
           rdf:resource="http://purl.org/dc/dcmitype/StillImage" />
        <dc:title></dc:title>
      </cc:Work>
    </rdf:RDF>
  </metadata>
  <g
     inkscape:label="Capa 1"
     inkscape:groupmode="layer"
     id="layer1"
     transform="translate(-33,-544.44542)">
    <path
       id="path3338-6"
       style="opacity:0.98999999;fill:#008000;fill-opacity:0.30319148;fill-rule:nonzero;stroke:#000000;stroke-width:0.81322175;stroke-miterlimit:4;stroke-dasharray:none;stroke-dashoffset:0;stroke-opacity:1"
       d="m 132.59375,590.41104 a 49.593391,12.09339 0 0 1 -49.593385,12.09339 49.593391,12.09339 0 0 1 -49.59339,-12.09339 49.593391,12.09339 0 0 1 49.59339,-12.09339 49.593391,12.09339 0 0 1 49.593385,12.09339 z M 83.000365,578.31853 a 49.593391,12.09339 0 0 0 -49.59375,12.0918 49.593391,12.09339 0 0 0 0.26563,1.13867 l 0,97.625 a 49.593391,12.09339 0 0 0 -0.26563,1.23633 49.593391,12.09339 0 0 0 49.59375,12.09375 49.593391,12.09339 0 0 0 49.593745,-12.09375 49.593391,12.09339 0 0 0 -0.0488,-0.33398 l 0.45508,0 0,-99.33008 -0.47461,0 a 49.593391,12.09339 0 0 0 0.0684,-0.33594 49.593391,12.09339 0 0 0 -49.593815,-12.0918 z"
       inkscape:connector-curvature="0" />
    <path
       id="path3338-6-7"
       style="opacity:0.98999999;fill:#000080;fill-opacity:0.30319148;fill-rule:nonzero;stroke:#000000;stroke-width:0.40700001;stroke-miterlimit:4;stroke-dasharray:none;stroke-dashoffset:0;stroke-opacity:1"
       d="m 329.93212,693.66985 a 24.796696,6.046695 0 0 1 -24.7967,6.0467 24.796696,6.046695 0 0 1 -24.79668,-6.0467 24.796696,6.046695 0 0 1 24.79668,-6.0467 24.796696,6.046695 0 0 1 24.7967,6.0467 z m -24.7967,-6.04626 a 24.796696,6.046695 0 0 0 -24.79686,6.0459 24.796696,6.046695 0 0 0 0.1328,0.56934 l 0,48.8125 a 24.796696,6.046695 0 0 0 -0.1328,0.61816 24.796696,6.046695 0 0 0 24.79686,6.04688 24.796696,6.046695 0 0 0 24.79688,-6.04688 24.796696,6.046695 0 0 0 -0.0244,-0.167 l 0.22754,0 0,-49.66504 -0.2373,0 a 24.796696,6.046695 0 0 0 0.0342,-0.168 24.796696,6.046695 0 0 0 -24.79692,-6.0459 z"
       inkscape:connector-curvature="0" />
    <path
       id="path3338-6-7-5"
       style="opacity:0.98999999;fill:#000080;fill-opacity:0.30319148;fill-rule:nonzero;stroke:#000000;stroke-width:0.20330544;stroke-miterlimit:4;stroke-dasharray:none;stroke-dashoffset:0;stroke-opacity:1"
       d="m 352.1276,602.06792 a 12.398348,3.0233475 0 0 1 -12.39835,3.02335 12.398348,3.0233475 0 0 1 -12.39834,-3.02335 12.398348,3.0233475 0 0 1 12.39834,-3.02334 12.398348,3.0233475 0 0 1 12.39835,3.02334 z m -12.39835,-3.02312 a 12.398348,3.0233475 0 0 0 -12.39843,3.02295 12.398348,3.0233475 0 0 0 0.0664,0.28466 l 0,24.40625 a 12.398348,3.0233475 0 0 0 -0.0664,0.30909 12.398348,3.0233475 0 0 0 12.39843,3.02343 12.398348,3.0233475 0 0 0 12.39844,-3.02343 12.398348,3.0233475 0 0 0 -0.0122,-0.0835 l 0.11377,0 0,-24.83252 -0.11865,0 a 12.398348,3.0233475 0 0 0 0.0171,-0.084 12.398348,3.0233475 0 0 0 -12.39846,-3.02295 z"
       inkscape:connector-curvature="0" />
    <path
       id="path3338-6-7-3"
       style="opacity:0.98999999;fill:#000080;fill-opacity:0.30319148;fill-rule:nonzero;stroke:#000000;stroke-width:0.20330544;stroke-miterlimit:4;stroke-dasharray:none;stroke-dashoffset:0;stroke-opacity:1"
       d="m 348.27086,547.57042 a 12.398348,3.0233475 0 0 1 -12.39835,3.02335 12.398348,3.0233475 0 0 1 -12.39835,-3.02335 12.398348,3.0233475 0 0 1 12.39835,-3.02335 12.398348,3.0233475 0 0 1 12.39835,3.02335 z m -12.39835,-3.02313 a 12.398348,3.0233475 0 0 0 -12.39844,3.02295 12.398348,3.0233475 0 0 0 0.0664,0.28467 l 0,24.40625 a 12.398348,3.0233475 0 0 0 -0.0664,0.30908 12.398348,3.0233475 0 0 0 12.39844,3.02344 12.398348,3.0233475 0 0 0 12.39844,-3.02344 12.398348,3.0233475 0 0 0 -0.0122,-0.0835 l 0.11377,0 0,-24.83252 -0.11866,0 a 12.398348,3.0233475 0 0 0 0.0171,-0.084 12.398348,3.0233475 0 0 0 -12.39845,-3.02295 z"
       inkscape:connector-curvature="0" />
    <path
       sodipodi:type="star"
       style="opacity:0.98999999;fill:#ffff00;fill-opacity:0.30319148;fill-rule:nonzero;stroke:none;stroke-width:0.912;stroke-miterlimit:4;stroke-dasharray:5.472, 5.472;stroke-dashoffset:0;stroke-opacity:1"
       id="path3425"
       sodipodi:sides="21"
       sodipodi:cx="230.80394"
       sodipodi:cy="605.88312"
       sodipodi:r1="51.910908"
       sodipodi:r2="45.890652"
       sodipodi:arg1="1.9231631"
       sodipodi:arg2="2.0616888"
       inkscape:flatsided="false"
       inkscape:rounded="0"
       inkscape:randomized="0"
       d="m 212.88844,654.60454 -3.71796,-8.24988 -9.847,0.80464 -1.12108,-8.97925 -9.6467,-2.13356 1.57541,-8.91078 -8.58924,-4.88218 4.13191,-8.05054 -6.7686,-7.197 6.32128,-6.47498 -4.34654,-8.87234 7.94898,-4.32408 -1.53826,-9.75933 8.87036,-1.78897 1.4067,-9.77916 9.00359,0.90509 4.22666,-8.93007 8.3368,3.51874 6.67106,-7.2875 6.92926,5.81973 8.52272,-4.99742 4.90601,7.60361 9.61709,-2.26327 2.44685,8.71187 9.85694,0.67196 -0.22973,9.04606 9.22096,3.54749 -2.88589,8.57645 7.76566,6.10781 -5.28563,7.34479 5.62034,8.12543 -7.21572,5.46051 2.97563,9.42107 -8.50466,3.09105 0.0665,9.87959 -9.03793,0.44693 -2.84849,9.46028 -8.76813,-2.2369 -5.5104,8.20038 -7.71925,-4.72198 -7.6827,6.21184 -5.98448,-6.78748 z"
       inkscape:transform-center-x="0.18054144"
       inkscape:transform-center-y="0.11340206" />
    <path
       id="path3338-6-7-5-2"
       style="opacity:0.98999999;fill:#c87137;fill-opacity:0.30319148;fill-rule:nonzero;stroke:#000000;stroke-width:0.06759906;stroke-miterlimit:4;stroke-dasharray:none;stroke-dashoffset:0;stroke-opacity:1"
       d="m 58.328023,669.36948 a 4.1224507,1.0052631 0 0 1 -4.122452,1.00527 4.1224507,1.0052631 0 0 1 -4.122448,-1.00527 4.1224507,1.0052631 0 0 1 4.122448,-1.00525 4.1224507,1.0052631 0 0 1 4.122452,1.00525 z m -4.122452,-1.00518 a 4.1224507,1.0052631 0 0 0 -4.122477,1.00513 4.1224507,1.0052631 0 0 0 0.02208,0.0947 l 0,8.11508 a 4.1224507,1.0052631 0 0 0 -0.02208,0.10281 4.1224507,1.0052631 0 0 0 4.122477,1.0053 4.1224507,1.0052631 0 0 0 4.122481,-1.0053 4.1224507,1.0052631 0 0 0 -0.0041,-0.0278 l 0.03782,0 0,-8.25682 -0.03945,0 a 4.1224507,1.0052631 0 0 0 0.0057,-0.0279 4.1224507,1.0052631 0 0 0 -4.122488,-1.00512 z"
       inkscape:connector-curvature="0" />
    <path
       id="path3338-6-7-5-2-1"
       style="opacity:0.98999999;fill:#c87137;fill-opacity:0.30319148;fill-rule:nonzero;stroke:#000000;stroke-width:0.06759906;stroke-miterlimit:4;stroke-dasharray:none;stroke-dashoffset:0;stroke-opacity:1"
       d="m 58.328027,656.06948 a 4.1224507,1.0052631 0 0 1 -4.122456,1.00527 4.1224507,1.0052631 0 0 1 -4.122448,-1.00527 4.1224507,1.0052631 0 0 1 4.122448,-1.00525 4.1224507,1.0052631 0 0 1 4.122456,1.00525 z m -4.122456,-1.00518 a 4.1224507,1.0052631 0 0 0 -4.122477,1.00513 4.1224507,1.0052631 0 0 0 0.02208,0.0947 l 0,8.11508 a 4.1224507,1.0052631 0 0 0 -0.02208,0.10281 4.1224507,1.0052631 0 0 0 4.122477,1.0053 4.1224507,1.0052631 0 0 0 4.122482,-1.0053 4.1224507,1.0052631 0 0 0 -0.004,-0.0278 l 0.03777,0 0,-8.25682 -0.0395,0 a 4.1224507,1.0052631 0 0 0 0.0053,-0.0279 4.1224507,1.0052631 0 0 0 -4.122489,-1.00512 z"
       inkscape:connector-curvature="0" />
    <path
       id="path3338-6-7-5-2-2"
       style="opacity:0.98999999;fill:#c87137;fill-opacity:0.30319148;fill-rule:nonzero;stroke:#000000;stroke-width:0.06759906;stroke-miterlimit:4;stroke-dasharray:none;stroke-dashoffset:0;stroke-opacity:1"
       d="m 58.328018,682.66948 a 4.1224507,1.0052631 0 0 1 -4.122442,1.00527 4.1224507,1.0052631 0 0 1 -4.122453,-1.00527 4.1224507,1.0052631 0 0 1 4.122453,-1.00525 4.1224507,1.0052631 0 0 1 4.122442,1.00525 z m -4.122442,-1.00518 a 4.1224507,1.0052631 0 0 0 -4.122482,1.00513 4.1224507,1.0052631 0 0 0 0.02208,0.0947 l 0,8.11508 a 4.1224507,1.0052631 0 0 0 -0.02208,0.10281 4.1224507,1.0052631 0 0 0 4.122482,1.0053 4.1224507,1.0052631 0 0 0 4.122481,-1.0053 4.1224507,1.0052631 0 0 0 -0.004,-0.0278 l 0.03777,0 0,-8.25682 -0.0395,0 a 4.1224507,1.0052631 0 0 0 0.0053,-0.0279 4.1224507,1.0052631 0 0 0 -4.122494,-1.00512 z"
       inkscape:connector-curvature="0" />
    <path
       id="path3338-6-7-5-2-7"
       style="opacity:0.98999999;fill:#c87137;fill-opacity:0.30319148;fill-rule:nonzero;stroke:#000000;stroke-width:0.06759906;stroke-miterlimit:4;stroke-dasharray:none;stroke-dashoffset:0;stroke-opacity:1"
       d="m 58.129353,627.64476 a 4.1224507,1.0052631 0 0 1 -4.122452,1.00527 4.1224507,1.0052631 0 0 1 -4.122448,-1.00527 4.1224507,1.0052631 0 0 1 4.122448,-1.00525 4.1224507,1.0052631 0 0 1 4.122452,1.00525 z m -4.122452,-1.00518 a 4.1224507,1.0052631 0 0 0 -4.122478,1.00513 4.1224507,1.0052631 0 0 0 0.02208,0.0947 l 0,8.11508 a 4.1224507,1.0052631 0 0 0 -0.02208,0.10281 4.1224507,1.0052631 0 0 0 4.122478,1.0053 4.1224507,1.0052631 0 0 0 4.122481,-1.0053 4.1224507,1.0052631 0 0 0 -0.0041,-0.0278 l 0.03782,0 0,-8.25682 -0.03945,0 a 4.1224507,1.0052631 0 0 0 0.0057,-0.0279 4.1224507,1.0052631 0 0 0 -4.122488,-1.00512 z"
       inkscape:connector-curvature="0" />
    <path
       id="path3338-6-7-5-2-1-0"
       style="opacity:0.98999999;fill:#c87137;fill-opacity:0.30319148;fill-rule:nonzero;stroke:#000000;stroke-width:0.06759906;stroke-miterlimit:4;stroke-dasharray:none;stroke-dashoffset:0;stroke-opacity:1"
       d="m 58.129357,614.34476 a 4.1224507,1.0052631 0 0 1 -4.122456,1.00527 4.1224507,1.0052631 0 0 1 -4.122448,-1.00527 4.1224507,1.0052631 0 0 1 4.122448,-1.00525 4.1224507,1.0052631 0 0 1 4.122456,1.00525 z m -4.122456,-1.00518 a 4.1224507,1.0052631 0 0 0 -4.122478,1.00513 4.1224507,1.0052631 0 0 0 0.02208,0.0947 l 0,8.11508 a 4.1224507,1.0052631 0 0 0 -0.02208,0.10281 4.1224507,1.0052631 0 0 0 4.122478,1.0053 4.1224507,1.0052631 0 0 0 4.122482,-1.0053 4.1224507,1.0052631 0 0 0 -0.004,-0.0278 l 0.03777,0 0,-8.25682 -0.0395,0 a 4.1224507,1.0052631 0 0 0 0.0053,-0.0279 4.1224507,1.0052631 0 0 0 -4.122489,-1.00512 z"
       inkscape:connector-curvature="0" />
    <path
       id="path3338-6-7-5-2-2-9"
       style="opacity:0.98999999;fill:#c87137;fill-opacity:0.30319148;fill-rule:nonzero;stroke:#000000;stroke-width:0.06759906;stroke-miterlimit:4;stroke-dasharray:none;stroke-dashoffset:0;stroke-opacity:1"
       d="m 58.129347,640.94476 a 4.1224507,1.0052631 0 0 1 -4.122441,1.00527 4.1224507,1.0052631 0 0 1 -4.122453,-1.00527 4.1224507,1.0052631 0 0 1 4.122453,-1.00525 4.1224507,1.0052631 0 0 1 4.122441,1.00525 z m -4.122441,-1.00518 a 4.1224507,1.0052631 0 0 0 -4.122483,1.00513 4.1224507,1.0052631 0 0 0 0.02208,0.0947 l 0,8.11508 a 4.1224507,1.0052631 0 0 0 -0.02208,0.10281 4.1224507,1.0052631 0 0 0 4.122483,1.0053 4.1224507,1.0052631 0 0 0 4.122481,-1.0053 4.1224507,1.0052631 0 0 0 -0.004,-0.0278 l 0.03777,0 0,-8.25682 -0.0395,0 a 4.1224507,1.0052631 0 0 0 0.0053,-0.0279 4.1224507,1.0052631 0 0 0 -4.122494,-1.00512 z"
       inkscape:connector-curvature="0" />
    <path
       id="path3338-6-7-5-2-3"
       style="opacity:0.98999999;fill:#c87137;fill-opacity:0.30319148;fill-rule:nonzero;stroke:#000000;stroke-width:0.06759906;stroke-miterlimit:4;stroke-dasharray:none;stroke-dashoffset:0;stroke-opacity:1"
       d="m 71.528688,669.83587 a 4.1224507,1.0052631 0 0 1 -4.122452,1.00527 4.1224507,1.0052631 0 0 1 -4.122448,-1.00527 4.1224507,1.0052631 0 0 1 4.122448,-1.00525 4.1224507,1.0052631 0 0 1 4.122452,1.00525 z m -4.122452,-1.00518 a 4.1224507,1.0052631 0 0 0 -4.122478,1.00513 4.1224507,1.0052631 0 0 0 0.02208,0.0947 l 0,8.11509 a 4.1224507,1.0052631 0 0 0 -0.02208,0.1028 4.1224507,1.0052631 0 0 0 4.122478,1.0053 4.1224507,1.0052631 0 0 0 4.122481,-1.0053 4.1224507,1.0052631 0 0 0 -0.0041,-0.0278 l 0.03783,0 0,-8.25682 -0.03945,0 a 4.1224507,1.0052631 0 0 0 0.0057,-0.0279 4.1224507,1.0052631 0 0 0 -4.122487,-1.00512 z"
       inkscape:connector-curvature="0" />
    <path
       id="path3338-6-7-5-2-1-6"
       style="opacity:0.98999999;fill:#c87137;fill-opacity:0.30319148;fill-rule:nonzero;stroke:#000000;stroke-width:0.06759906;stroke-miterlimit:4;stroke-dasharray:none;stroke-dashoffset:0;stroke-opacity:1"
       d="m 71.528692,656.53587 a 4.1224507,1.0052631 0 0 1 -4.122456,1.00527 4.1224507,1.0052631 0 0 1 -4.122448,-1.00527 4.1224507,1.0052631 0 0 1 4.122448,-1.00525 4.1224507,1.0052631 0 0 1 4.122456,1.00525 z m -4.122456,-1.00518 a 4.1224507,1.0052631 0 0 0 -4.122478,1.00513 4.1224507,1.0052631 0 0 0 0.02208,0.0947 l 0,8.11509 a 4.1224507,1.0052631 0 0 0 -0.02208,0.1028 4.1224507,1.0052631 0 0 0 4.122478,1.0053 4.1224507,1.0052631 0 0 0 4.122482,-1.0053 4.1224507,1.0052631 0 0 0 -0.004,-0.0278 l 0.03777,0 0,-8.25682 -0.0395,0 a 4.1224507,1.0052631 0 0 0 0.0053,-0.0279 4.1224507,1.0052631 0 0 0 -4.122489,-1.00512 z"
       inkscape:connector-curvature="0" />
    <path
       id="path3338-6-7-5-2-2-0"
       style="opacity:0.98999999;fill:#c87137;fill-opacity:0.30319148;fill-rule:nonzero;stroke:#000000;stroke-width:0.06759906;stroke-miterlimit:4;stroke-dasharray:none;stroke-dashoffset:0;stroke-opacity:1"
       d="m 71.528683,683.13587 a 4.1224507,1.0052631 0 0 1 -4.122442,1.00527 4.1224507,1.0052631 0 0 1 -4.122453,-1.00527 4.1224507,1.0052631 0 0 1 4.122453,-1.00525 4.1224507,1.0052631 0 0 1 4.122442,1.00525 z m -4.122442,-1.00518 a 4.1224507,1.0052631 0 0 0 -4.122483,1.00513 4.1224507,1.0052631 0 0 0 0.02208,0.0947 l 0,8.11509 a 4.1224507,1.0052631 0 0 0 -0.02208,0.1028 4.1224507,1.0052631 0 0 0 4.122483,1.0053 4.1224507,1.0052631 0 0 0 4.122481,-1.0053 4.1224507,1.0052631 0 0 0 -0.004,-0.0278 l 0.03777,0 0,-8.25682 -0.0395,0 a 4.1224507,1.0052631 0 0 0 0.0053,-0.0279 4.1224507,1.0052631 0 0 0 -4.122494,-1.00512 z"
       inkscape:connector-curvature="0" />
    <path
       id="path3338-6-7-5-2-7-6"
       style="opacity:0.98999999;fill:#c87137;fill-opacity:0.30319148;fill-rule:nonzero;stroke:#000000;stroke-width:0.06759906;stroke-miterlimit:4;stroke-dasharray:none;stroke-dashoffset:0;stroke-opacity:1"
       d="m 71.330018,628.11115 a 4.1224507,1.0052631 0 0 1 -4.122452,1.00527 4.1224507,1.0052631 0 0 1 -4.122448,-1.00527 4.1224507,1.0052631 0 0 1 4.122448,-1.00525 4.1224507,1.0052631 0 0 1 4.122452,1.00525 z m -4.122452,-1.00518 a 4.1224507,1.0052631 0 0 0 -4.122478,1.00513 4.1224507,1.0052631 0 0 0 0.02208,0.0947 l 0,8.11509 a 4.1224507,1.0052631 0 0 0 -0.02208,0.1028 4.1224507,1.0052631 0 0 0 4.122478,1.0053 4.1224507,1.0052631 0 0 0 4.122481,-1.0053 4.1224507,1.0052631 0 0 0 -0.0041,-0.0278 l 0.03782,0 0,-8.25682 -0.03945,0 a 4.1224507,1.0052631 0 0 0 0.0057,-0.0279 4.1224507,1.0052631 0 0 0 -4.122488,-1.00512 z"
       inkscape:connector-curvature="0" />
    <path
       id="path3338-6-7-5-2-1-0-2"
       style="opacity:0.98999999;fill:#c87137;fill-opacity:0.30319148;fill-rule:nonzero;stroke:#000000;stroke-width:0.06759906;stroke-miterlimit:4;stroke-dasharray:none;stroke-dashoffset:0;stroke-opacity:1"
       d="m 71.330022,614.81115 a 4.1224507,1.0052631 0 0 1 -4.122456,1.00527 4.1224507,1.0052631 0 0 1 -4.122448,-1.00527 4.1224507,1.0052631 0 0 1 4.122448,-1.00525 4.1224507,1.0052631 0 0 1 4.122456,1.00525 z m -4.122456,-1.00518 a 4.1224507,1.0052631 0 0 0 -4.122478,1.00513 4.1224507,1.0052631 0 0 0 0.02208,0.0947 l 0,8.11509 a 4.1224507,1.0052631 0 0 0 -0.02208,0.1028 4.1224507,1.0052631 0 0 0 4.122478,1.0053 4.1224507,1.0052631 0 0 0 4.122482,-1.0053 4.1224507,1.0052631 0 0 0 -0.004,-0.0278 l 0.03777,0 0,-8.25682 -0.0395,0 a 4.1224507,1.0052631 0 0 0 0.0053,-0.0279 4.1224507,1.0052631 0 0 0 -4.122489,-1.00512 z"
       inkscape:connector-curvature="0" />
    <path
       id="path3338-6-7-5-2-2-9-6"
       style="opacity:0.98999999;fill:#c87137;fill-opacity:0.30319148;fill-rule:nonzero;stroke:#000000;stroke-width:0.06759906;stroke-miterlimit:4;stroke-dasharray:none;stroke-dashoffset:0;stroke-opacity:1"
       d="m 71.330012,641.41115 a 4.1224507,1.0052631 0 0 1 -4.122441,1.00527 4.1224507,1.0052631 0 0 1 -4.122453,-1.00527 4.1224507,1.0052631 0 0 1 4.122453,-1.00525 4.1224507,1.0052631 0 0 1 4.122441,1.00525 z m -4.122441,-1.00518 a 4.1224507,1.0052631 0 0 0 -4.122483,1.00513 4.1224507,1.0052631 0 0 0 0.02208,0.0947 l 0,8.11509 a 4.1224507,1.0052631 0 0 0 -0.02208,0.1028 4.1224507,1.0052631 0 0 0 4.122483,1.0053 4.1224507,1.0052631 0 0 0 4.122481,-1.0053 4.1224507,1.0052631 0 0 0 -0.004,-0.0278 l 0.03777,0 0,-8.25682 -0.0395,0 a 4.1224507,1.0052631 0 0 0 0.0053,-0.0279 4.1224507,1.0052631 0 0 0 -4.122494,-1.00512 z"
       inkscape:connector-curvature="0" />
    <path
       id="path3338-6-7-5-2-18"
       style="opacity:0.98999999;fill:#c87137;fill-opacity:0.30319148;fill-rule:nonzero;stroke:#000000;stroke-width:0.06759906;stroke-miterlimit:4;stroke-dasharray:none;stroke-dashoffset:0;stroke-opacity:1"
       d="m 84.828688,669.83587 a 4.1224507,1.0052631 0 0 1 -4.122452,1.00527 4.1224507,1.0052631 0 0 1 -4.122448,-1.00527 4.1224507,1.0052631 0 0 1 4.122448,-1.00525 4.1224507,1.0052631 0 0 1 4.122452,1.00525 z m -4.122452,-1.00518 a 4.1224507,1.0052631 0 0 0 -4.122478,1.00513 4.1224507,1.0052631 0 0 0 0.02208,0.0947 l 0,8.11509 a 4.1224507,1.0052631 0 0 0 -0.02208,0.1028 4.1224507,1.0052631 0 0 0 4.122478,1.0053 4.1224507,1.0052631 0 0 0 4.122481,-1.0053 4.1224507,1.0052631 0 0 0 -0.0041,-0.0278 l 0.03782,0 0,-8.25682 -0.03945,0 a 4.1224507,1.0052631 0 0 0 0.0057,-0.0279 4.1224507,1.0052631 0 0 0 -4.122487,-1.00512 z"
       inkscape:connector-curvature="0" />
    <path
       id="path3338-6-7-5-2-1-7"
       style="opacity:0.98999999;fill:#c87137;fill-opacity:0.30319148;fill-rule:nonzero;stroke:#000000;stroke-width:0.06759906;stroke-miterlimit:4;stroke-dasharray:none;stroke-dashoffset:0;stroke-opacity:1"
       d="m 84.828692,656.53587 a 4.1224507,1.0052631 0 0 1 -4.122456,1.00527 4.1224507,1.0052631 0 0 1 -4.122448,-1.00527 4.1224507,1.0052631 0 0 1 4.122448,-1.00525 4.1224507,1.0052631 0 0 1 4.122456,1.00525 z m -4.122456,-1.00518 a 4.1224507,1.0052631 0 0 0 -4.122478,1.00513 4.1224507,1.0052631 0 0 0 0.02208,0.0947 l 0,8.11509 a 4.1224507,1.0052631 0 0 0 -0.02208,0.1028 4.1224507,1.0052631 0 0 0 4.122478,1.0053 4.1224507,1.0052631 0 0 0 4.122482,-1.0053 4.1224507,1.0052631 0 0 0 -0.004,-0.0278 l 0.03777,0 0,-8.25682 -0.0395,0 a 4.1224507,1.0052631 0 0 0 0.0053,-0.0279 4.1224507,1.0052631 0 0 0 -4.122489,-1.00512 z"
       inkscape:connector-curvature="0" />
    <path
       id="path3338-6-7-5-2-2-92"
       style="opacity:0.98999999;fill:#c87137;fill-opacity:0.30319148;fill-rule:nonzero;stroke:#000000;stroke-width:0.06759906;stroke-miterlimit:4;stroke-dasharray:none;stroke-dashoffset:0;stroke-opacity:1"
       d="m 84.828683,683.13587 a 4.1224507,1.0052631 0 0 1 -4.122442,1.00527 4.1224507,1.0052631 0 0 1 -4.122453,-1.00527 4.1224507,1.0052631 0 0 1 4.122453,-1.00525 4.1224507,1.0052631 0 0 1 4.122442,1.00525 z m -4.122442,-1.00518 a 4.1224507,1.0052631 0 0 0 -4.122483,1.00513 4.1224507,1.0052631 0 0 0 0.02208,0.0947 l 0,8.11509 a 4.1224507,1.0052631 0 0 0 -0.02208,0.1028 4.1224507,1.0052631 0 0 0 4.122483,1.0053 4.1224507,1.0052631 0 0 0 4.122481,-1.0053 4.1224507,1.0052631 0 0 0 -0.004,-0.0278 l 0.03777,0 0,-8.25682 -0.0395,0 a 4.1224507,1.0052631 0 0 0 0.0053,-0.0279 4.1224507,1.0052631 0 0 0 -4.122494,-1.00512 z"
       inkscape:connector-curvature="0" />
    <path
       id="path3338-6-7-5-2-7-0"
       style="opacity:0.98999999;fill:#c87137;fill-opacity:0.30319148;fill-rule:nonzero;stroke:#000000;stroke-width:0.06759906;stroke-miterlimit:4;stroke-dasharray:none;stroke-dashoffset:0;stroke-opacity:1"
       d="m 84.630018,628.11115 a 4.1224507,1.0052631 0 0 1 -4.122452,1.00527 4.1224507,1.0052631 0 0 1 -4.122448,-1.00527 4.1224507,1.0052631 0 0 1 4.122448,-1.00525 4.1224507,1.0052631 0 0 1 4.122452,1.00525 z m -4.122452,-1.00518 a 4.1224507,1.0052631 0 0 0 -4.122478,1.00513 4.1224507,1.0052631 0 0 0 0.02208,0.0947 l 0,8.11509 a 4.1224507,1.0052631 0 0 0 -0.02208,0.1028 4.1224507,1.0052631 0 0 0 4.122478,1.0053 4.1224507,1.0052631 0 0 0 4.122481,-1.0053 4.1224507,1.0052631 0 0 0 -0.0041,-0.0278 l 0.03782,0 0,-8.25682 -0.03945,0 a 4.1224507,1.0052631 0 0 0 0.0057,-0.0279 4.1224507,1.0052631 0 0 0 -4.122488,-1.00512 z"
       inkscape:connector-curvature="0" />
    <path
       id="path3338-6-7-5-2-1-0-23"
       style="opacity:0.98999999;fill:#c87137;fill-opacity:0.30319148;fill-rule:nonzero;stroke:#000000;stroke-width:0.06759906;stroke-miterlimit:4;stroke-dasharray:none;stroke-dashoffset:0;stroke-opacity:1"
       d="m 84.630022,614.81115 a 4.1224507,1.0052631 0 0 1 -4.122456,1.00527 4.1224507,1.0052631 0 0 1 -4.122448,-1.00527 4.1224507,1.0052631 0 0 1 4.122448,-1.00525 4.1224507,1.0052631 0 0 1 4.122456,1.00525 z m -4.122456,-1.00518 a 4.1224507,1.0052631 0 0 0 -4.122478,1.00513 4.1224507,1.0052631 0 0 0 0.02208,0.0947 l 0,8.11509 a 4.1224507,1.0052631 0 0 0 -0.02208,0.1028 4.1224507,1.0052631 0 0 0 4.122478,1.0053 4.1224507,1.0052631 0 0 0 4.122482,-1.0053 4.1224507,1.0052631 0 0 0 -0.004,-0.0278 l 0.03777,0 0,-8.25682 -0.0395,0 a 4.1224507,1.0052631 0 0 0 0.0053,-0.0279 4.1224507,1.0052631 0 0 0 -4.122489,-1.00512 z"
       inkscape:connector-curvature="0" />
    <path
       id="path3338-6-7-5-2-2-9-7"
       style="opacity:0.98999999;fill:#c87137;fill-opacity:0.30319148;fill-rule:nonzero;stroke:#000000;stroke-width:0.06759906;stroke-miterlimit:4;stroke-dasharray:none;stroke-dashoffset:0;stroke-opacity:1"
       d="m 84.630012,641.41115 a 4.1224507,1.0052631 0 0 1 -4.122441,1.00527 4.1224507,1.0052631 0 0 1 -4.122453,-1.00527 4.1224507,1.0052631 0 0 1 4.122453,-1.00525 4.1224507,1.0052631 0 0 1 4.122441,1.00525 z m -4.122441,-1.00518 a 4.1224507,1.0052631 0 0 0 -4.122483,1.00513 4.1224507,1.0052631 0 0 0 0.02208,0.0947 l 0,8.11509 a 4.1224507,1.0052631 0 0 0 -0.02208,0.1028 4.1224507,1.0052631 0 0 0 4.122483,1.0053 4.1224507,1.0052631 0 0 0 4.122481,-1.0053 4.1224507,1.0052631 0 0 0 -0.004,-0.0278 l 0.03777,0 0,-8.25682 -0.0395,0 a 4.1224507,1.0052631 0 0 0 0.0053,-0.0279 4.1224507,1.0052631 0 0 0 -4.122494,-1.00512 z"
       inkscape:connector-curvature="0" />
    <path
       id="path3338-6-7-5-2-5"
       style="opacity:0.98999999;fill:#c87137;fill-opacity:0.30319148;fill-rule:nonzero;stroke:#000000;stroke-width:0.06759906;stroke-miterlimit:4;stroke-dasharray:none;stroke-dashoffset:0;stroke-opacity:1"
       d="m 96.727081,670.7442 a 4.1224507,1.0052631 0 0 1 -4.122455,1.00527 4.1224507,1.0052631 0 0 1 -4.122455,-1.00527 4.1224507,1.0052631 0 0 1 4.122455,-1.00526 4.1224507,1.0052631 0 0 1 4.122455,1.00526 z m -4.122455,-1.00519 a 4.1224507,1.0052631 0 0 0 -4.122481,1.00513 4.1224507,1.0052631 0 0 0 0.02208,0.0947 l 0,8.11509 a 4.1224507,1.0052631 0 0 0 -0.02208,0.10281 4.1224507,1.0052631 0 0 0 4.122481,1.00529 4.1224507,1.0052631 0 0 0 4.122481,-1.00529 4.1224507,1.0052631 0 0 0 -0.004,-0.0278 l 0.03777,0 0,-8.25681 -0.0395,0 a 4.1224507,1.0052631 0 0 0 0.0053,-0.0279 4.1224507,1.0052631 0 0 0 -4.122494,-1.00512 z"
       inkscape:connector-curvature="0" />
    <path
       id="path3338-6-7-5-2-1-9"
       style="opacity:0.98999999;fill:#c87137;fill-opacity:0.30319148;fill-rule:nonzero;stroke:#000000;stroke-width:0.06759906;stroke-miterlimit:4;stroke-dasharray:none;stroke-dashoffset:0;stroke-opacity:1"
       d="m 96.727081,657.4442 a 4.1224507,1.0052631 0 0 1 -4.122455,1.00527 4.1224507,1.0052631 0 0 1 -4.122455,-1.00527 4.1224507,1.0052631 0 0 1 4.122455,-1.00526 4.1224507,1.0052631 0 0 1 4.122455,1.00526 z m -4.122455,-1.00519 a 4.1224507,1.0052631 0 0 0 -4.122481,1.00513 4.1224507,1.0052631 0 0 0 0.02208,0.0947 l 0,8.11509 a 4.1224507,1.0052631 0 0 0 -0.02208,0.10281 4.1224507,1.0052631 0 0 0 4.122481,1.00529 4.1224507,1.0052631 0 0 0 4.122481,-1.00529 4.1224507,1.0052631 0 0 0 -0.004,-0.0278 l 0.03777,0 0,-8.25681 -0.0395,0 a 4.1224507,1.0052631 0 0 0 0.0053,-0.0279 4.1224507,1.0052631 0 0 0 -4.122494,-1.00512 z"
       inkscape:connector-curvature="0" />
    <path
       id="path3338-6-7-5-2-2-2"
       style="opacity:0.98999999;fill:#c87137;fill-opacity:0.30319148;fill-rule:nonzero;stroke:#000000;stroke-width:0.06759906;stroke-miterlimit:4;stroke-dasharray:none;stroke-dashoffset:0;stroke-opacity:1"
       d="m 96.727067,684.0442 a 4.1224507,1.0052631 0 0 1 -4.122441,1.00527 4.1224507,1.0052631 0 0 1 -4.122455,-1.00527 4.1224507,1.0052631 0 0 1 4.122455,-1.00526 4.1224507,1.0052631 0 0 1 4.122441,1.00526 z m -4.122441,-1.00519 a 4.1224507,1.0052631 0 0 0 -4.122481,1.00513 4.1224507,1.0052631 0 0 0 0.02208,0.0947 l 0,8.11509 a 4.1224507,1.0052631 0 0 0 -0.02208,0.10281 4.1224507,1.0052631 0 0 0 4.122481,1.00529 4.1224507,1.0052631 0 0 0 4.122481,-1.00529 4.1224507,1.0052631 0 0 0 -0.004,-0.0278 l 0.03777,0 0,-8.25681 -0.0395,0 a 4.1224507,1.0052631 0 0 0 0.0053,-0.0279 4.1224507,1.0052631 0 0 0 -4.122494,-1.00512 z"
       inkscape:connector-curvature="0" />
    <path
       id="path3338-6-7-5-2-7-2"
       style="opacity:0.98999999;fill:#c87137;fill-opacity:0.30319148;fill-rule:nonzero;stroke:#000000;stroke-width:0.06759906;stroke-miterlimit:4;stroke-dasharray:none;stroke-dashoffset:0;stroke-opacity:1"
       d="m 96.528405,629.01948 a 4.1224507,1.0052631 0 0 1 -4.122454,1.00527 4.1224507,1.0052631 0 0 1 -4.122442,-1.00527 4.1224507,1.0052631 0 0 1 4.122442,-1.00526 4.1224507,1.0052631 0 0 1 4.122454,1.00526 z m -4.122454,-1.00519 a 4.1224507,1.0052631 0 0 0 -4.122468,1.00513 4.1224507,1.0052631 0 0 0 0.02208,0.0947 l 0,8.11509 a 4.1224507,1.0052631 0 0 0 -0.02208,0.10281 4.1224507,1.0052631 0 0 0 4.122468,1.00529 4.1224507,1.0052631 0 0 0 4.122481,-1.00529 4.1224507,1.0052631 0 0 0 -0.004,-0.0278 l 0.03777,0 0,-8.25681 -0.0395,0 a 4.1224507,1.0052631 0 0 0 0.0053,-0.0279 4.1224507,1.0052631 0 0 0 -4.122481,-1.00512 z"
       inkscape:connector-curvature="0" />
    <path
       id="path3338-6-7-5-2-1-0-8"
       style="opacity:0.98999999;fill:#c87137;fill-opacity:0.30319148;fill-rule:nonzero;stroke:#000000;stroke-width:0.06759906;stroke-miterlimit:4;stroke-dasharray:none;stroke-dashoffset:0;stroke-opacity:1"
       d="m 96.528405,615.71948 a 4.1224507,1.0052631 0 0 1 -4.122454,1.00527 4.1224507,1.0052631 0 0 1 -4.122442,-1.00527 4.1224507,1.0052631 0 0 1 4.122442,-1.00526 4.1224507,1.0052631 0 0 1 4.122454,1.00526 z m -4.122454,-1.00519 a 4.1224507,1.0052631 0 0 0 -4.122468,1.00513 4.1224507,1.0052631 0 0 0 0.02208,0.0947 l 0,8.11509 a 4.1224507,1.0052631 0 0 0 -0.02208,0.10281 4.1224507,1.0052631 0 0 0 4.122468,1.00529 4.1224507,1.0052631 0 0 0 4.122481,-1.00529 4.1224507,1.0052631 0 0 0 -0.004,-0.0278 l 0.03777,0 0,-8.25681 -0.0395,0 a 4.1224507,1.0052631 0 0 0 0.0053,-0.0279 4.1224507,1.0052631 0 0 0 -4.122481,-1.00512 z"
       inkscape:connector-curvature="0" />
    <path
       id="path3338-6-7-5-2-2-9-9"
       style="opacity:0.98999999;fill:#c87137;fill-opacity:0.30319148;fill-rule:nonzero;stroke:#000000;stroke-width:0.06759906;stroke-miterlimit:4;stroke-dasharray:none;stroke-dashoffset:0;stroke-opacity:1"
       d="m 96.528405,642.31948 a 4.1224507,1.0052631 0 0 1 -4.122441,1.00527 4.1224507,1.0052631 0 0 1 -4.122455,-1.00527 4.1224507,1.0052631 0 0 1 4.122455,-1.00526 4.1224507,1.0052631 0 0 1 4.122441,1.00526 z m -4.122441,-1.00519 a 4.1224507,1.0052631 0 0 0 -4.122481,1.00513 4.1224507,1.0052631 0 0 0 0.02208,0.0947 l 0,8.11509 a 4.1224507,1.0052631 0 0 0 -0.02208,0.10281 4.1224507,1.0052631 0 0 0 4.122481,1.00529 4.1224507,1.0052631 0 0 0 4.122481,-1.00529 4.1224507,1.0052631 0 0 0 -0.004,-0.0278 l 0.03777,0 0,-8.25681 -0.0395,0 a 4.1224507,1.0052631 0 0 0 0.0053,-0.0279 4.1224507,1.0052631 0 0 0 -4.122494,-1.00512 z"
       inkscape:connector-curvature="0" />
    <path
       id="path3338-6-7-5-2-73"
       style="opacity:0.98999999;fill:#c87137;fill-opacity:0.30319148;fill-rule:nonzero;stroke:#000000;stroke-width:0.06759906;stroke-miterlimit:4;stroke-dasharray:none;stroke-dashoffset:0;stroke-opacity:1"
       d="m 110.02708,670.7442 a 4.1224507,1.0052631 0 0 1 -4.12245,1.00527 4.1224507,1.0052631 0 0 1 -4.12246,-1.00527 4.1224507,1.0052631 0 0 1 4.12246,-1.00526 4.1224507,1.0052631 0 0 1 4.12245,1.00526 z m -4.12245,-1.00519 a 4.1224507,1.0052631 0 0 0 -4.12249,1.00513 4.1224507,1.0052631 0 0 0 0.0221,0.0947 l 0,8.11509 a 4.1224507,1.0052631 0 0 0 -0.0221,0.10281 4.1224507,1.0052631 0 0 0 4.12249,1.00529 4.1224507,1.0052631 0 0 0 4.12248,-1.00529 4.1224507,1.0052631 0 0 0 -0.004,-0.0278 l 0.0378,0 0,-8.25681 -0.0395,0 a 4.1224507,1.0052631 0 0 0 0.005,-0.0279 4.1224507,1.0052631 0 0 0 -4.1225,-1.00512 z"
       inkscape:connector-curvature="0" />
    <path
       id="path3338-6-7-5-2-1-61"
       style="opacity:0.98999999;fill:#c87137;fill-opacity:0.30319148;fill-rule:nonzero;stroke:#000000;stroke-width:0.06759906;stroke-miterlimit:4;stroke-dasharray:none;stroke-dashoffset:0;stroke-opacity:1"
       d="m 110.02708,657.4442 a 4.1224507,1.0052631 0 0 1 -4.12245,1.00527 4.1224507,1.0052631 0 0 1 -4.12246,-1.00527 4.1224507,1.0052631 0 0 1 4.12246,-1.00526 4.1224507,1.0052631 0 0 1 4.12245,1.00526 z m -4.12245,-1.00519 a 4.1224507,1.0052631 0 0 0 -4.12249,1.00513 4.1224507,1.0052631 0 0 0 0.0221,0.0947 l 0,8.11509 a 4.1224507,1.0052631 0 0 0 -0.0221,0.10281 4.1224507,1.0052631 0 0 0 4.12249,1.00529 4.1224507,1.0052631 0 0 0 4.12248,-1.00529 4.1224507,1.0052631 0 0 0 -0.004,-0.0278 l 0.0378,0 0,-8.25681 -0.0395,0 a 4.1224507,1.0052631 0 0 0 0.005,-0.0279 4.1224507,1.0052631 0 0 0 -4.1225,-1.00512 z"
       inkscape:connector-curvature="0" />
    <path
       id="path3338-6-7-5-2-2-29"
       style="opacity:0.98999999;fill:#c87137;fill-opacity:0.30319148;fill-rule:nonzero;stroke:#000000;stroke-width:0.06759906;stroke-miterlimit:4;stroke-dasharray:none;stroke-dashoffset:0;stroke-opacity:1"
       d="m 110.02707,684.0442 a 4.1224507,1.0052631 0 0 1 -4.12244,1.00527 4.1224507,1.0052631 0 0 1 -4.12246,-1.00527 4.1224507,1.0052631 0 0 1 4.12246,-1.00526 4.1224507,1.0052631 0 0 1 4.12244,1.00526 z m -4.12244,-1.00519 a 4.1224507,1.0052631 0 0 0 -4.12249,1.00513 4.1224507,1.0052631 0 0 0 0.0221,0.0947 l 0,8.11509 a 4.1224507,1.0052631 0 0 0 -0.0221,0.10281 4.1224507,1.0052631 0 0 0 4.12249,1.00529 4.1224507,1.0052631 0 0 0 4.12248,-1.00529 4.1224507,1.0052631 0 0 0 -0.004,-0.0278 l 0.0378,0 0,-8.25681 -0.0395,0 a 4.1224507,1.0052631 0 0 0 0.005,-0.0279 4.1224507,1.0052631 0 0 0 -4.1225,-1.00512 z"
       inkscape:connector-curvature="0" />
    <path
       id="path3338-6-7-5-2-7-3"
       style="opacity:0.98999999;fill:#c87137;fill-opacity:0.30319148;fill-rule:nonzero;stroke:#000000;stroke-width:0.06759906;stroke-miterlimit:4;stroke-dasharray:none;stroke-dashoffset:0;stroke-opacity:1"
       d="m 109.82841,629.01948 a 4.1224507,1.0052631 0 0 1 -4.12246,1.00527 4.1224507,1.0052631 0 0 1 -4.12244,-1.00527 4.1224507,1.0052631 0 0 1 4.12244,-1.00526 4.1224507,1.0052631 0 0 1 4.12246,1.00526 z m -4.12246,-1.00519 a 4.1224507,1.0052631 0 0 0 -4.12247,1.00513 4.1224507,1.0052631 0 0 0 0.0221,0.0947 l 0,8.11509 a 4.1224507,1.0052631 0 0 0 -0.0221,0.10281 4.1224507,1.0052631 0 0 0 4.12247,1.00529 4.1224507,1.0052631 0 0 0 4.12248,-1.00529 4.1224507,1.0052631 0 0 0 -0.004,-0.0278 l 0.0378,0 0,-8.25681 -0.0395,0 a 4.1224507,1.0052631 0 0 0 0.005,-0.0279 4.1224507,1.0052631 0 0 0 -4.12248,-1.00512 z"
       inkscape:connector-curvature="0" />
    <path
       id="path3338-6-7-5-2-1-0-1"
       style="opacity:0.98999999;fill:#c87137;fill-opacity:0.30319148;fill-rule:nonzero;stroke:#000000;stroke-width:0.06759906;stroke-miterlimit:4;stroke-dasharray:none;stroke-dashoffset:0;stroke-opacity:1"
       d="m 109.82841,615.71948 a 4.1224507,1.0052631 0 0 1 -4.12246,1.00527 4.1224507,1.0052631 0 0 1 -4.12244,-1.00527 4.1224507,1.0052631 0 0 1 4.12244,-1.00526 4.1224507,1.0052631 0 0 1 4.12246,1.00526 z m -4.12246,-1.00519 a 4.1224507,1.0052631 0 0 0 -4.12247,1.00513 4.1224507,1.0052631 0 0 0 0.0221,0.0947 l 0,8.11509 a 4.1224507,1.0052631 0 0 0 -0.0221,0.10281 4.1224507,1.0052631 0 0 0 4.12247,1.00529 4.1224507,1.0052631 0 0 0 4.12248,-1.00529 4.1224507,1.0052631 0 0 0 -0.004,-0.0278 l 0.0378,0 0,-8.25681 -0.0395,0 a 4.1224507,1.0052631 0 0 0 0.005,-0.0279 4.1224507,1.0052631 0 0 0 -4.12248,-1.00512 z"
       inkscape:connector-curvature="0" />
    <path
       id="path3338-6-7-5-2-2-9-94"
       style="opacity:0.98999999;fill:#c87137;fill-opacity:0.30319148;fill-rule:nonzero;stroke:#000000;stroke-width:0.06759906;stroke-miterlimit:4;stroke-dasharray:none;stroke-dashoffset:0;stroke-opacity:1"
       d="m 109.82841,642.31948 a 4.1224507,1.0052631 0 0 1 -4.12245,1.00527 4.1224507,1.0052631 0 0 1 -4.12245,-1.00527 4.1224507,1.0052631 0 0 1 4.12245,-1.00526 4.1224507,1.0052631 0 0 1 4.12245,1.00526 z m -4.12245,-1.00519 a 4.1224507,1.0052631 0 0 0 -4.12248,1.00513 4.1224507,1.0052631 0 0 0 0.0221,0.0947 l 0,8.11509 a 4.1224507,1.0052631 0 0 0 -0.0221,0.10281 4.1224507,1.0052631 0 0 0 4.12248,1.00529 4.1224507,1.0052631 0 0 0 4.12249,-1.00529 4.1224507,1.0052631 0 0 0 -0.004,-0.0278 l 0.0378,0 0,-8.25681 -0.0395,0 a 4.1224507,1.0052631 0 0 0 0.005,-0.0279 4.1224507,1.0052631 0 0 0 -4.1225,-1.00512 z"
       inkscape:connector-curvature="0" />
    <text
       xml:space="preserve"
       style="font-style:normal;font-weight:normal;font-size:40px;line-height:125%;font-family:sans-serif;letter-spacing:0px;word-spacing:0px;fill:#000000;fill-opacity:1;stroke:none;stroke-width:1px;stroke-linecap:butt;stroke-linejoin:miter;stroke-opacity:1"
       x="193.50807"
       y="609.67474"
       id="text4380"
       sodipodi:linespacing="125%"><tspan
         sodipodi:role="line"
         id="tspan4382"
         x="193.50807"
         y="609.67474"
         style="font-size:20px">Internet</tspan></text>
    <path
       style="fill:none;fill-rule:evenodd;stroke:#000000;stroke-width:1px;stroke-linecap:butt;stroke-linejoin:miter;stroke-opacity:1;marker-start:url(#marker4892);marker-end:url(#marker5128)"
       d="m 133.00039,628.77408 51.35414,-12.0007"
       id="path4386"
       inkscape:connector-type="polyline"
       inkscape:connector-curvature="0"
       inkscape:connection-start="#path3338-6"
       inkscape:connection-end="#path3425" />
    <path
       style="fill:none;fill-rule:evenodd;stroke:#000000;stroke-width:1px;stroke-linecap:butt;stroke-linejoin:miter;stroke-opacity:1;marker-start:url(#marker4716);marker-end:url(#Arrow1Lend)"
       d="M 286.11187,689.79145 258.41668,647.97264"
       id="path4388"
       inkscape:connector-type="polyline"
       inkscape:connector-curvature="0"
       inkscape:connection-start="#path3338-6-7"
       inkscape:connection-end="#path3425" />
    <path
       style="fill:none;fill-rule:evenodd;stroke:#000000;stroke-width:1px;stroke-linecap:butt;stroke-linejoin:miter;stroke-opacity:1;marker-start:url(#marker4818);marker-end:url(#marker5000)"
       d="m 327.39722,613.59242 -46.91289,-3.69557"
       id="path4390"
       inkscape:connector-type="polyline"
       inkscape:connector-curvature="0"
       inkscape:connection-start="#path3338-6-7-5"
       inkscape:connection-end="#path3425" />
    <path
       style="fill:none;fill-rule:evenodd;stroke:#000000;stroke-width:1px;stroke-linecap:butt;stroke-linejoin:miter;stroke-opacity:1;marker-start:url(#marker4852);marker-end:url(#marker5058)"
       d="m 323.54047,565.46632 -47.78954,20.82477"
       id="path4392"
       inkscape:connector-type="polyline"
       inkscape:connector-curvature="0"
       inkscape:connection-start="#path3338-6-7-3"
       inkscape:connection-end="#path3425" />
  </g>
</svg>
